<svg id="Layer_1" data-name="Layer 1" xmlns="http://www.w3.org/2000/svg" viewBox="0 0 3170.81 712.98"><defs><style>.cls-1,.cls-2,.cls-3{fill:none;}.cls-1,.cls-2{stroke:#1d1d1b;stroke-linecap:round;stroke-linejoin:round;stroke-width:7.2px;}.cls-1{stroke-dasharray:0 21.77;}.cls-4{font-size:90px;}.cls-4,.cls-5,.cls-6{fill:#1d1d1b;}.cls-4,.cls-6{font-family:HelveticaNowDisplay-Medium, Helvetica Now Display;font-weight:500;}.cls-6{font-size:45px;}.cls-7{letter-spacing:0.01em;}.cls-8{letter-spacing:0.01em;}.cls-9{letter-spacing:-0.1em;}.cls-10{letter-spacing:-0.01em;}.cls-11{letter-spacing:-0.01em;}.cls-12{letter-spacing:-0.12em;}.cls-13{letter-spacing:0em;}.cls-14{letter-spacing:0.01em;}.cls-15{letter-spacing:0em;}.cls-16{letter-spacing:0.01em;}</style></defs><path class="cls-1" d="M-709.86,769.69c177.65-11,319.06-155.87,324.59-335" transform="translate(1081.73 -66.69)"/><path class="cls-1" d="M-385.78,402.09c-11-177.65-155.87-319-335-324.58" transform="translate(1081.73 -66.69)"/><path class="cls-1" d="M-753.38,78C-931,89-1072.43,233.88-1078,413" transform="translate(1081.73 -66.69)"/><path class="cls-1" d="M-1077.45,445.61c11,177.65,155.87,319.06,335,324.58" transform="translate(1081.73 -66.69)"/><path class="cls-2" d="M-731.62,770.36h0m-346.51-346.51h0M-731.62,77.34h0m346.51,346.51h0" transform="translate(1081.73 -66.69)"/><rect class="cls-3" width="3170.81" height="712.98"/><text class="cls-4" transform="translate(333.33 275.19)">1</text><path class="cls-5" d="M-864.14,424a7.89,7.89,0,0,1,1.39,4.61,8.42,8.42,0,0,1-2.76,6.67c-1.85,1.62-4.5,2.42-8,2.42H-887.9v-32h13.81c3.24,0,5.73.76,7.45,2.29a7.66,7.66,0,0,1,2.59,6,7.47,7.47,0,0,1-4.23,7A8.55,8.55,0,0,1-864.14,424Zm-19-14.19v9.58h8.69q5.63,0,5.62-5a4.14,4.14,0,0,0-1.46-3.38,6.33,6.33,0,0,0-4.16-1.21Zm9.36,23.76a7,7,0,0,0,4.55-1.31,4.56,4.56,0,0,0,1.57-3.73q0-5.13-6.12-5.13h-9.36v10.17Z" transform="translate(1081.73 -66.69)"/><path class="cls-5" d="M-837.77,427.59h-17.51a8.15,8.15,0,0,0,2,5.15,6.18,6.18,0,0,0,4.63,1.73q4.41,0,5.76-3.86h4.55a10,10,0,0,1-3.67,5.6,10.9,10.9,0,0,1-6.73,2,10.41,10.41,0,0,1-8-3.33,12.48,12.48,0,0,1-3.06-8.81,12.52,12.52,0,0,1,3.06-8.82,10.31,10.31,0,0,1,8-3.33,10.11,10.11,0,0,1,8.1,3.46,13.29,13.29,0,0,1,2.93,8.87Zm-15.37-8.23a7.68,7.68,0,0,0-2.09,4.68h12.82a7.48,7.48,0,0,0-2-4.57,5.83,5.83,0,0,0-4.39-1.73A6,6,0,0,0-853.14,419.36Z" transform="translate(1081.73 -66.69)"/><path class="cls-5" d="M-825.62,409.32q-3,0-3,3.06v2.12h4.86v3.69h-4.86v19.52h-4.5V418.19h-3.73V414.5h3.73v-2.12q0-6.84,7-6.84c.45,0,1.3,0,2.56.14v3.64Z" transform="translate(1081.73 -66.69)"/><path class="cls-5" d="M-811.18,438.25a11,11,0,0,1-8.32-3.33,12.17,12.17,0,0,1-3.2-8.81,12.28,12.28,0,0,1,3.2-8.87,11,11,0,0,1,8.32-3.28,11,11,0,0,1,8.33,3.28,12.29,12.29,0,0,1,3.15,8.87,12.19,12.19,0,0,1-3.15,8.81A11,11,0,0,1-811.18,438.25Zm5-6.07a9.27,9.27,0,0,0,1.82-6.07A9.3,9.3,0,0,0-806.2,420a6.13,6.13,0,0,0-5-2.2,6.16,6.16,0,0,0-5,2.2,9.2,9.2,0,0,0-1.85,6.08,9.17,9.17,0,0,0,1.85,6.07,6.16,6.16,0,0,0,5,2.2A6.13,6.13,0,0,0-806.2,432.18Z" transform="translate(1081.73 -66.69)"/><path class="cls-5" d="M-782.87,414.18v4.28H-784a7.69,7.69,0,0,0-5.35,1.71,6.33,6.33,0,0,0-1.89,4.95v12.59h-4.5V414.5h4.32v4.14a7.5,7.5,0,0,1,7.24-4.5A12.24,12.24,0,0,1-782.87,414.18Z" transform="translate(1081.73 -66.69)"/><path class="cls-5" d="M-759.88,427.59h-17.5a8.15,8.15,0,0,0,2,5.15,6.21,6.21,0,0,0,4.64,1.73q4.41,0,5.76-3.86h4.54a10,10,0,0,1-3.66,5.6,10.92,10.92,0,0,1-6.73,2,10.43,10.43,0,0,1-8.06-3.33,12.48,12.48,0,0,1-3.06-8.81,12.52,12.52,0,0,1,3.06-8.82,10.33,10.33,0,0,1,8-3.33,10.11,10.11,0,0,1,8.1,3.46,13.28,13.28,0,0,1,2.92,8.87Zm-15.36-8.23a7.63,7.63,0,0,0-2.1,4.68h12.83a7.54,7.54,0,0,0-2-4.57,5.85,5.85,0,0,0-4.39-1.73A6,6,0,0,0-775.24,419.36Z" transform="translate(1081.73 -66.69)"/><path class="cls-5" d="M-725.54,434.25v3.46a16.44,16.44,0,0,1-2.21.14,5.31,5.31,0,0,1-3.21-.79,3.48,3.48,0,0,1-1.29-2.49q-2.34,3.68-7.56,3.68a9.25,9.25,0,0,1-6.05-1.82,6.18,6.18,0,0,1-2.23-5.06q0-6.3,8.73-7.2l3.42-.36a5.18,5.18,0,0,0,2.64-.92,2.48,2.48,0,0,0,.83-2,2.94,2.94,0,0,0-1.1-2.55,6.56,6.56,0,0,0-3.67-.78,6.71,6.71,0,0,0-4,.92,4.28,4.28,0,0,0-1.39,3.26h-4.46q.5-7.78,9.86-7.78,9.18,0,9.18,6.84v12.28q0,1.17,1.26,1.17Zm-8.82-1.13a5.71,5.71,0,0,0,1.89-4.58v-2.43a5.57,5.57,0,0,1-2.88.94l-3.24.36a7.35,7.35,0,0,0-3.74,1.24,3.14,3.14,0,0,0-1.12,2.59,3.19,3.19,0,0,0,1.1,2.58,4.89,4.89,0,0,0,3.22.93A7,7,0,0,0-734.36,433.12Z" transform="translate(1081.73 -66.69)"/><path class="cls-5" d="M-705.7,405.68h4.5v32h-4.32v-3.42a8.62,8.62,0,0,1-7.69,4,9.77,9.77,0,0,1-7.74-3.28q-2.88-3.29-2.88-8.86t2.88-8.87a9.77,9.77,0,0,1,7.74-3.28,8.63,8.63,0,0,1,7.51,3.69Zm-6.66,28.7a6.1,6.1,0,0,0,5-2.2,9.11,9.11,0,0,0,1.8-6.07,9.42,9.42,0,0,0-1.8-6.12,6.16,6.16,0,0,0-5-2.16,6.07,6.07,0,0,0-4.95,2.25,9.52,9.52,0,0,0-1.84,6.21,8.81,8.81,0,0,0,1.84,6A6.23,6.23,0,0,0-712.36,434.38Z" transform="translate(1081.73 -66.69)"/><path class="cls-5" d="M-685.67,438.25a11,11,0,0,1-8.33-3.33,12.16,12.16,0,0,1-3.19-8.81,12.28,12.28,0,0,1,3.19-8.87,11,11,0,0,1,8.33-3.28,11,11,0,0,1,8.32,3.28,12.29,12.29,0,0,1,3.15,8.87,12.19,12.19,0,0,1-3.15,8.81A11,11,0,0,1-685.67,438.25Zm5-6.07a9.22,9.22,0,0,0,1.82-6.07A9.25,9.25,0,0,0-680.7,420a6.11,6.11,0,0,0-5-2.2,6.18,6.18,0,0,0-5,2.2,9.2,9.2,0,0,0-1.84,6.08,9.17,9.17,0,0,0,1.84,6.07,6.18,6.18,0,0,0,5,2.2A6.11,6.11,0,0,0-680.7,432.18Z" transform="translate(1081.73 -66.69)"/><path class="cls-5" d="M-650.44,417.24q2.88,3.28,2.88,8.87c0,3.68-1,6.63-2.88,8.81a9.8,9.8,0,0,1-7.74,3.33,8.6,8.6,0,0,1-7.56-3.78v12.06h-4.5v-32h4.32V418a8.61,8.61,0,0,1,7.74-4.05A9.77,9.77,0,0,1-650.44,417.24ZM-659,434.38a6.11,6.11,0,0,0,5-2.25,9.54,9.54,0,0,0,1.8-6.2,9,9,0,0,0-1.8-6,6.19,6.19,0,0,0-5-2.11,6.18,6.18,0,0,0-5,2.16,9.37,9.37,0,0,0-1.85,6.12,9.17,9.17,0,0,0,1.85,6.07A6,6,0,0,0-659,434.38Z" transform="translate(1081.73 -66.69)"/><path class="cls-5" d="M-633.83,418.19h-4.68v13.94a1.79,1.79,0,0,0,.6,1.51,3.38,3.38,0,0,0,2,.48h2v3.59c-1,.09-1.91.14-2.75.14a7.72,7.72,0,0,1-4.86-1.26,4.88,4.88,0,0,1-1.57-4V418.19h-3.74V414.5H-643v-6.66h4.5v6.66h4.68Z" transform="translate(1081.73 -66.69)"/><path class="cls-5" d="M-630.28,411.21V406.4h4.59v4.81Zm0,26.5V414.5h4.5v23.21Z" transform="translate(1081.73 -66.69)"/><path class="cls-5" d="M-610.25,438.25a11,11,0,0,1-8.33-3.33,12.16,12.16,0,0,1-3.19-8.81,12.28,12.28,0,0,1,3.19-8.87,11,11,0,0,1,8.33-3.28,11,11,0,0,1,8.32,3.28,12.29,12.29,0,0,1,3.15,8.87,12.19,12.19,0,0,1-3.15,8.81A11,11,0,0,1-610.25,438.25Zm5-6.07a9.27,9.27,0,0,0,1.82-6.07,9.3,9.3,0,0,0-1.82-6.08,6.11,6.11,0,0,0-5-2.2,6.18,6.18,0,0,0-5,2.2,9.2,9.2,0,0,0-1.84,6.08,9.17,9.17,0,0,0,1.84,6.07,6.18,6.18,0,0,0,5,2.2A6.11,6.11,0,0,0-605.28,432.18Z" transform="translate(1081.73 -66.69)"/><path class="cls-5" d="M-577.22,416.09a8.16,8.16,0,0,1,2.16,6.06v15.56h-4.5V422.78q0-4.86-4.91-4.86a5.74,5.74,0,0,0-4,1.71,6.65,6.65,0,0,0-1.8,5v13.09h-4.5V414.5h4.32V418a8.3,8.3,0,0,1,7.29-4A8.17,8.17,0,0,1-577.22,416.09Z" transform="translate(1081.73 -66.69)"/><path class="cls-5" d="M-835,491.71l-3.15-8.32h-14.4l-3.11,8.32h-5l12.51-32h5.53l12.69,32Zm-16-12.5h11.29l-.67-1.76q-2.39-5.94-5-13.14-3.11,8.28-5,13.14Z" transform="translate(1081.73 -66.69)"/><path class="cls-5" d="M-813.25,459.68c3.48,0,6.18.9,8.1,2.72a9.69,9.69,0,0,1,2.88,7.4,9.66,9.66,0,0,1-2.88,7.36q-2.88,2.71-8.1,2.72h-8.82v11.83h-4.81v-32Zm-.09,16a6.37,6.37,0,0,0,4.59-1.51,5.72,5.72,0,0,0,1.58-4.34,5.8,5.8,0,0,0-1.58-4.36,6.33,6.33,0,0,0-4.59-1.53h-8.73v11.74Z" transform="translate(1081.73 -66.69)"/><path class="cls-5" d="M-784.18,459.68c3.48,0,6.18.9,8.1,2.72a9.69,9.69,0,0,1,2.88,7.4,9.66,9.66,0,0,1-2.88,7.36q-2.88,2.71-8.1,2.72H-793v11.83h-4.81v-32Zm-.09,16a6.37,6.37,0,0,0,4.59-1.51,5.72,5.72,0,0,0,1.58-4.34,5.8,5.8,0,0,0-1.58-4.36,6.33,6.33,0,0,0-4.59-1.53H-793v11.74Z" transform="translate(1081.73 -66.69)"/><path class="cls-5" d="M-744.26,487.8a9.33,9.33,0,0,0,1.08,3.91h-5a7.53,7.53,0,0,1-1-4.09l-.13-3.42c-.09-2.07-.56-3.53-1.4-4.39a5.51,5.51,0,0,0-4-1.28H-764v13.18h-4.82v-32h14c3.42,0,6.11.78,8.08,2.36a7.87,7.87,0,0,1,2.94,6.5,8.36,8.36,0,0,1-1.41,4.93,7.53,7.53,0,0,1-4,2.81,5.93,5.93,0,0,1,3.42,2.27,8,8,0,0,1,1.17,4.26Zm-10.44-13.27a6.33,6.33,0,0,0,4.39-1.44,5.25,5.25,0,0,0,1.59-4.1,4.63,4.63,0,0,0-1.64-3.87,7.39,7.39,0,0,0-4.7-1.3H-764v10.71Z" transform="translate(1081.73 -66.69)"/><path class="cls-5" d="M-735.94,487.8q-4.32-4.59-4.32-12.1t4.32-12.15q4.23-4.59,11.34-4.59a14.85,14.85,0,0,1,11.34,4.59q4.28,4.68,4.28,12.15t-4.28,12.1a14.77,14.77,0,0,1-11.34,4.63Q-731.71,492.43-735.94,487.8Zm19.08-3.06q2.88-3.28,2.88-9t-2.88-9.09a9.8,9.8,0,0,0-7.74-3.33,9.8,9.8,0,0,0-7.74,3.33q-2.92,3.42-2.92,9.09c0,3.8,1,6.82,2.92,9a9.66,9.66,0,0,0,7.74,3.38A9.66,9.66,0,0,0-716.86,484.74Z" transform="translate(1081.73 -66.69)"/><path class="cls-5" d="M-684.77,459.68h5l-11.7,32H-697l-11.92-32h5.08l6.71,18.63c1.11,3.11,2.07,6.06,2.88,8.81.45-1.5,1.41-4.43,2.88-8.81Z" transform="translate(1081.73 -66.69)"/><path class="cls-5" d="M-676.4,491.71v-32h4.81v32Z" transform="translate(1081.73 -66.69)"/><path class="cls-5" d="M-644,459.68h4.64v32h-5.54l-9.85-15.52q-4.32-6.75-6.26-10.3.18,5.36.18,16.11v9.71h-4.68v-32H-660l9.9,15.52q4,6.35,6.25,10.35-.18-5.4-.18-16.15Z" transform="translate(1081.73 -66.69)"/><path class="cls-5" d="M-618.49,474.89h14v16.82h-3.69l-.85-4.27q-3.6,5-10.44,5a14,14,0,0,1-11-4.63q-4.19-4.59-4.18-12.1t4.23-12.15q4.18-4.59,11.25-4.59a15.24,15.24,0,0,1,9.76,3.06,12.59,12.59,0,0,1,4.59,8.23h-5a8.24,8.24,0,0,0-3.22-5.13,10,10,0,0,0-6.14-1.89,9.48,9.48,0,0,0-7.65,3.38q-2.88,3.33-2.88,9.09t2.88,9.09a9.73,9.73,0,0,0,7.74,3.37,10.15,10.15,0,0,0,7.07-2.61,8.82,8.82,0,0,0,3-6.57h-9.45Z" transform="translate(1081.73 -66.69)"/><path class="cls-1" d="M933.11,775.39c177.64-11,319.05-155.87,324.58-334.95" transform="translate(1081.73 -66.69)"/><path class="cls-1" d="M1257.18,407.79c-11-177.65-155.87-319-335-324.58" transform="translate(1081.73 -66.69)"/><path class="cls-1" d="M889.58,83.71c-177.65,11-319.05,155.88-324.58,335" transform="translate(1081.73 -66.69)"/><path class="cls-1" d="M565.51,451.31c11,177.65,155.87,319.06,335,324.59" transform="translate(1081.73 -66.69)"/><path class="cls-2" d="M911.34,776.06h0M564.83,429.55h0M911.34,83h0m346.51,346.51h0" transform="translate(1081.73 -66.69)"/><rect class="cls-3" width="3170.81" height="712.98"/><text class="cls-4" transform="translate(1974.78 280.89)">3</text><path class="cls-5" d="M766,411.38q7.42,0,11.7,4.27t4.19,11.75q0,7.47-4.19,11.74T766,443.42H754.54v-32Zm0,27.81q5.27,0,8.07-3.06t2.82-8.73q0-5.67-2.82-8.73t-8.07-3.06h-6.57v23.58Z" transform="translate(1081.73 -66.69)"/><path class="cls-5" d="M800.94,420.2h4.5v23.22h-4.32V440a8.31,8.31,0,0,1-7.29,4,7.49,7.49,0,0,1-8.15-8.19V420.2h4.5v14.94q0,4.86,4.91,4.86a5.53,5.53,0,0,0,4.16-1.78,6.91,6.91,0,0,0,1.69-4.93Z" transform="translate(1081.73 -66.69)"/><path class="cls-5" d="M823.39,419.88v4.28h-1.12a7.72,7.72,0,0,0-5.36,1.71,6.33,6.33,0,0,0-1.89,4.95v12.6h-4.5V420.2h4.32v4.14a7.51,7.51,0,0,1,7.25-4.5A12,12,0,0,1,823.39,419.88Z" transform="translate(1081.73 -66.69)"/><path class="cls-5" d="M826.59,416.91V412.1h4.59v4.81Zm0,26.51V420.2h4.5v23.22Z" transform="translate(1081.73 -66.69)"/><path class="cls-5" d="M853.77,421.79a8.16,8.16,0,0,1,2.16,6.06v15.57h-4.5V428.48q0-4.86-4.91-4.86a5.74,5.74,0,0,0-4,1.71,6.65,6.65,0,0,0-1.8,5v13.1h-4.5V420.2h4.32v3.46a8.3,8.3,0,0,1,7.29-4A8.17,8.17,0,0,1,853.77,421.79Z" transform="translate(1081.73 -66.69)"/><path class="cls-5" d="M878.24,420.2h4.32v22.36a9.8,9.8,0,0,1-2.88,7.49q-2.88,2.73-8.18,2.73a11.53,11.53,0,0,1-7.23-2.07,7.83,7.83,0,0,1-3-5.67h4.5c.35,2.73,2.29,4.09,5.8,4.09q6.53,0,6.52-6.48v-2.56a8.74,8.74,0,0,1-7.47,3.6,9.76,9.76,0,0,1-7.73-3.29,14.47,14.47,0,0,1,0-17.46,9.71,9.71,0,0,1,7.69-3.28,8.7,8.7,0,0,1,7.69,3.82Zm-1.86,17.43a10.67,10.67,0,0,0,0-11.92,6.71,6.71,0,0,0-9.92,0,10.49,10.49,0,0,0,0,11.9,6.71,6.71,0,0,0,9.92,0Z" transform="translate(1081.73 -66.69)"/><path class="cls-5" d="M918,440v3.47a16.54,16.54,0,0,1-2.21.13,5.31,5.31,0,0,1-3.21-.79,3.44,3.44,0,0,1-1.28-2.49c-1.57,2.46-4.08,3.69-7.57,3.69a9.27,9.27,0,0,1-6.05-1.83,6.18,6.18,0,0,1-2.22-5.06q0-6.3,8.73-7.2l3.41-.36a5.14,5.14,0,0,0,2.64-.92,2.48,2.48,0,0,0,.83-2A2.94,2.94,0,0,0,910,424a6.56,6.56,0,0,0-3.67-.78,6.66,6.66,0,0,0-4,.92,4.29,4.29,0,0,0-1.4,3.26h-4.45q.5-7.79,9.85-7.78,9.18,0,9.18,6.84v12.28q0,1.17,1.26,1.17Zm-8.82-1.12a5.72,5.72,0,0,0,1.89-4.59v-2.43a5.48,5.48,0,0,1-2.88.94l-3.24.36a7.31,7.31,0,0,0-3.73,1.24,3.55,3.55,0,0,0,0,5.17,4.89,4.89,0,0,0,3.22.93A7.07,7.07,0,0,0,909.16,438.83Z" transform="translate(1081.73 -66.69)"/><path class="cls-5" d="M937.78,411.38h4.5v32H938V440a8.63,8.63,0,0,1-7.7,4,9.78,9.78,0,0,1-7.74-3.29c-1.92-2.19-2.87-5.14-2.87-8.86s1-6.68,2.87-8.87a9.77,9.77,0,0,1,7.74-3.28,8.65,8.65,0,0,1,7.52,3.69Zm-6.66,28.71a6.09,6.09,0,0,0,5-2.21,9.11,9.11,0,0,0,1.8-6.07,9.42,9.42,0,0,0-1.8-6.12,6.14,6.14,0,0,0-5-2.16,6.07,6.07,0,0,0-5,2.25,9.52,9.52,0,0,0-1.84,6.21,8.81,8.81,0,0,0,1.84,6A6.24,6.24,0,0,0,931.12,440.09Z" transform="translate(1081.73 -66.69)"/><path class="cls-5" d="M957.8,444a11,11,0,0,1-8.32-3.33,13.82,13.82,0,0,1,0-17.69,12.2,12.2,0,0,1,16.65,0,14,14,0,0,1,0,17.69A11,11,0,0,1,957.8,444Zm5-6.08a11,11,0,0,0,0-12.15,6.75,6.75,0,0,0-10,0,10.9,10.9,0,0,0,0,12.15,6.73,6.73,0,0,0,10,0Z" transform="translate(1081.73 -66.69)"/><path class="cls-5" d="M993,422.94q2.88,3.29,2.88,8.87T993,440.63A9.8,9.8,0,0,1,985.3,444a8.62,8.62,0,0,1-7.56-3.78v12.06h-4.5v-32h4.32v3.51a8.61,8.61,0,0,1,7.74-4A9.77,9.77,0,0,1,993,422.94Zm-8.6,17.15a6.13,6.13,0,0,0,5-2.25,9.57,9.57,0,0,0,1.8-6.21,9,9,0,0,0-1.8-6,6.86,6.86,0,0,0-10,.05,9.37,9.37,0,0,0-1.84,6.12,9.17,9.17,0,0,0,1.84,6.07A6,6,0,0,0,984.44,440.09Z" transform="translate(1081.73 -66.69)"/><path class="cls-5" d="M1009.64,423.89H1005v13.95a1.78,1.78,0,0,0,.61,1.5,3.38,3.38,0,0,0,2,.48h2v3.6c-1,.09-1.9.13-2.74.13a7.72,7.72,0,0,1-4.86-1.26,4.88,4.88,0,0,1-1.58-4.05V423.89h-3.73V420.2h3.73v-6.66h4.5v6.66h4.68Z" transform="translate(1081.73 -66.69)"/><path class="cls-5" d="M1013.2,416.91V412.1h4.59v4.81Zm0,26.51V420.2h4.5v23.22Z" transform="translate(1081.73 -66.69)"/><path class="cls-5" d="M1033.22,444a11,11,0,0,1-8.32-3.33,13.82,13.82,0,0,1,0-17.69,12.2,12.2,0,0,1,16.65,0,14,14,0,0,1,0,17.69A11,11,0,0,1,1033.22,444Zm5-6.08a11,11,0,0,0,0-12.15,6.75,6.75,0,0,0-10,0,10.9,10.9,0,0,0,0,12.15,6.73,6.73,0,0,0,10,0Z" transform="translate(1081.73 -66.69)"/><path class="cls-5" d="M1066.25,421.79a8.16,8.16,0,0,1,2.16,6.06v15.57h-4.5V428.48q0-4.86-4.9-4.86a5.74,5.74,0,0,0-4,1.71,6.65,6.65,0,0,0-1.8,5v13.1h-4.5V420.2H1053v3.46a8.3,8.3,0,0,1,7.29-4A8.14,8.14,0,0,1,1066.25,421.79Z" transform="translate(1081.73 -66.69)"/><path class="cls-5" d="M707.52,465.38h5l-9,32h-5.4l-4.05-15q-1.17-4.37-2.79-11.11-1.62,6.75-2.79,11.11l-4.05,15H679l-9-32h5l3.91,14.53q2,7.88,3,11.84,2.61-10.71,2.93-11.93l3.87-14.44h5.13l3.87,14.44q.31,1.21,2.92,11.93.95-4,3-11.84Z" transform="translate(1081.73 -66.69)"/><path class="cls-5" d="M735.42,497.42l-3.15-8.33h-14.4l-3.11,8.33h-5l12.51-32h5.53l12.69,32Zm-16-12.51h11.29l-.67-1.76q-2.38-5.94-5-13.14-3.1,8.28-4.95,13.14Z" transform="translate(1081.73 -66.69)"/><path class="cls-5" d="M743.52,497.42v-32h4.81v32Z" transform="translate(1081.73 -66.69)"/><path class="cls-5" d="M778.17,465.38v4.32H767.55v27.72h-4.91V469.7H752v-4.32Z" transform="translate(1081.73 -66.69)"/><path class="cls-5" d="M781.86,497.42v-32h4.81v32Z" transform="translate(1081.73 -66.69)"/><path class="cls-5" d="M814.21,465.38h4.63v32h-5.53l-9.85-15.53q-4.32-6.75-6.26-10.3.18,5.36.18,16.11v9.72H792.7v-32h5.54l9.9,15.52q4,6.35,6.25,10.35-.18-5.4-.18-16.15Z" transform="translate(1081.73 -66.69)"/><path class="cls-5" d="M839.81,480.59h14v16.83h-3.69l-.85-4.28q-3.6,5-10.44,5a14,14,0,0,1-11-4.64q-4.18-4.59-4.18-12.1t4.23-12.15q4.19-4.59,11.25-4.59a15.24,15.24,0,0,1,9.76,3.06A12.59,12.59,0,0,1,853.4,476h-4.95a8.27,8.27,0,0,0-3.21-5.13,10,10,0,0,0-6.15-1.89,9.48,9.48,0,0,0-7.65,3.38q-2.88,3.33-2.88,9.09t2.88,9.09a9.73,9.73,0,0,0,7.74,3.37,10.15,10.15,0,0,0,7.07-2.61,8.82,8.82,0,0,0,3-6.57h-9.45Z" transform="translate(1081.73 -66.69)"/><path class="cls-5" d="M890.26,469.7h-17v9h15.34V483H873.25v14.45h-4.82v-32h21.83Z" transform="translate(1081.73 -66.69)"/><path class="cls-5" d="M896.65,493.5q-4.32-4.59-4.32-12.1t4.32-12.15q4.23-4.59,11.34-4.59a14.85,14.85,0,0,1,11.34,4.59q4.27,4.68,4.27,12.15t-4.27,12.1A14.78,14.78,0,0,1,908,498.14Q900.88,498.14,896.65,493.5Zm19.08-3.06q2.88-3.29,2.88-9t-2.88-9.09a10.66,10.66,0,0,0-15.48,0,13.51,13.51,0,0,0-2.93,9.09q0,5.72,2.93,9a10.55,10.55,0,0,0,15.48,0Z" transform="translate(1081.73 -66.69)"/><path class="cls-5" d="M952.81,493.5a9.38,9.38,0,0,0,1.08,3.92h-4.95a7.57,7.57,0,0,1-1-4.1l-.13-3.42c-.09-2.07-.56-3.53-1.4-4.39a5.51,5.51,0,0,0-4.05-1.28H933.1v13.19h-4.82v-32h14q5.13,0,8.07,2.36a7.85,7.85,0,0,1,2.95,6.5,8.3,8.3,0,0,1-1.42,4.93,7.46,7.46,0,0,1-4,2.81,5.93,5.93,0,0,1,3.42,2.27,8,8,0,0,1,1.17,4.26Zm-10.44-13.27a6.29,6.29,0,0,0,4.38-1.44,5.22,5.22,0,0,0,1.6-4.1,4.66,4.66,0,0,0-1.64-3.87,7.39,7.39,0,0,0-4.7-1.3H933.1v10.71Z" transform="translate(1081.73 -66.69)"/><path class="cls-5" d="M970.13,493.59q-4.23-4.5-4.23-12.19t4.19-12.2A14.16,14.16,0,0,1,981,464.66a14.92,14.92,0,0,1,9.14,2.83,13.3,13.3,0,0,1,4.9,8.51H990.2a9.07,9.07,0,0,0-3.31-5.29,9.56,9.56,0,0,0-5.87-1.78,9.06,9.06,0,0,0-7.38,3.35q-2.75,3.36-2.74,9.12c0,3.84.91,6.87,2.74,9.11a9.06,9.06,0,0,0,7.38,3.35,9.91,9.91,0,0,0,6.21-2.11,9,9,0,0,0,3.2-6.17h4.81a13,13,0,0,1-4.63,9.27,14.65,14.65,0,0,1-9.59,3.29A14.12,14.12,0,0,1,970.13,493.59Z" transform="translate(1081.73 -66.69)"/><path class="cls-5" d="M999.74,497.42v-32h4.82v32Z" transform="translate(1081.73 -66.69)"/><path class="cls-5" d="M1015.4,493.1h15.71v4.32h-20.52v-32h4.81Z" transform="translate(1081.73 -66.69)"/><path class="cls-5" d="M1046.59,465.38q7.42,0,11.7,4.27t4.18,11.75q0,7.47-4.18,11.74t-11.7,4.28h-11.43v-32Zm0,27.81q5.26,0,8.08-3.06t2.81-8.73q0-5.67-2.81-8.73t-8.08-3.06H1040v23.58Z" transform="translate(1081.73 -66.69)"/><path class="cls-5" d="M1091.67,493.5a9.69,9.69,0,0,0,1.08,3.92h-4.94a7.57,7.57,0,0,1-1-4.1l-.13-3.42c-.09-2.07-.56-3.53-1.4-4.39a5.51,5.51,0,0,0-4-1.28H1072v13.19h-4.82v-32h14q5.13,0,8.07,2.36a7.85,7.85,0,0,1,3,6.5,8.3,8.3,0,0,1-1.42,4.93,7.46,7.46,0,0,1-4,2.81,5.93,5.93,0,0,1,3.42,2.27,8,8,0,0,1,1.17,4.26Zm-10.43-13.27a6.29,6.29,0,0,0,4.38-1.44,5.22,5.22,0,0,0,1.6-4.1,4.66,4.66,0,0,0-1.64-3.87,7.41,7.41,0,0,0-4.7-1.3H1072v10.71Z" transform="translate(1081.73 -66.69)"/><path class="cls-5" d="M1119.89,469.7h-18v9h16.33V483h-16.33V493.1h17.9v4.32H1097v-32h22.86Z" transform="translate(1081.73 -66.69)"/><path class="cls-5" d="M1145.76,465.38h4.64v32h-5.54L1135,481.89q-4.32-6.75-6.26-10.3c.13,3.57.18,8.94.18,16.11v9.72h-4.68v-32h5.54l9.9,15.52q4,6.35,6.25,10.35-.18-5.4-.18-16.15Z" transform="translate(1081.73 -66.69)"/><path class="cls-1" d="M100.14,775.39c177.65-11,319.06-155.87,324.59-334.95" transform="translate(1081.73 -66.69)"/><path class="cls-1" d="M424.22,407.79c-11-177.65-155.87-319-335-324.58" transform="translate(1081.73 -66.69)"/><path class="cls-1" d="M56.62,83.71c-177.65,11-319,155.88-324.58,335" transform="translate(1081.73 -66.69)"/><path class="cls-1" d="M-267.45,451.31c11,177.65,155.87,319.06,335,324.59" transform="translate(1081.73 -66.69)"/><path class="cls-2" d="M78.38,776.06h0M-268.13,429.55h0M78.38,83h0M424.89,429.55h0" transform="translate(1081.73 -66.69)"/><rect class="cls-3" width="3170.81" height="712.98"/><text class="cls-4" transform="translate(1141.82 280.89)">2</text><path class="cls-5" d="M-37.51,443.42l-3.15-8.33h-14.4l-3.11,8.33h-5l12.51-32h5.53l12.69,32Zm-16-12.51h11.29l-.67-1.76q-2.39-5.94-5-13.14-3.11,8.28-5,13.14Z" transform="translate(1081.73 -66.69)"/><path class="cls-5" d="M-21.63,415q-3,0-3,3.06v2.12h4.86v3.69h-4.86v19.53h-4.5V423.89h-3.74V420.2h3.74v-2.12q0-6.84,7-6.84c.45,0,1.31.05,2.57.14V415Z" transform="translate(1081.73 -66.69)"/><path class="cls-5" d="M-5,423.89H-9.66v13.95a1.76,1.76,0,0,0,.61,1.5,3.36,3.36,0,0,0,2.05.48h2v3.6c-1,.09-1.9.13-2.74.13a7.72,7.72,0,0,1-4.86-1.26,4.88,4.88,0,0,1-1.58-4.05V423.89h-3.73V420.2h3.73v-6.66h4.5v6.66H-5Z" transform="translate(1081.73 -66.69)"/><path class="cls-5" d="M19.19,433.29H1.68a8.15,8.15,0,0,0,2,5.15,6.19,6.19,0,0,0,4.63,1.74q4.41,0,5.76-3.87h4.55a10,10,0,0,1-3.67,5.6,10.92,10.92,0,0,1-6.73,2,10.41,10.41,0,0,1-8-3.33A14.24,14.24,0,0,1,.2,423a10.31,10.31,0,0,1,8-3.33,10.11,10.11,0,0,1,8.1,3.46A13.29,13.29,0,0,1,19.19,432ZM3.82,425.06a7.62,7.62,0,0,0-2.09,4.68H14.55a7.54,7.54,0,0,0-2-4.57,5.85,5.85,0,0,0-4.39-1.73A6,6,0,0,0,3.82,425.06Z" transform="translate(1081.73 -66.69)"/><path class="cls-5" d="M36.06,419.88v4.28H34.94a7.72,7.72,0,0,0-5.36,1.71,6.33,6.33,0,0,0-1.89,4.95v12.6h-4.5V420.2h4.32v4.14a7.51,7.51,0,0,1,7.25-4.5A12,12,0,0,1,36.06,419.88Z" transform="translate(1081.73 -66.69)"/><path class="cls-5" d="M70,440v3.47a16.44,16.44,0,0,1-2.21.13,5.33,5.33,0,0,1-3.21-.79,3.47,3.47,0,0,1-1.28-2.49Q61,444,55.73,444a9.28,9.28,0,0,1-6.06-1.83,6.18,6.18,0,0,1-2.22-5.06q0-6.3,8.73-7.2l3.42-.36a5.14,5.14,0,0,0,2.63-.92,2.48,2.48,0,0,0,.83-2A2.94,2.94,0,0,0,62,424a6.56,6.56,0,0,0-3.67-.78,6.68,6.68,0,0,0-4,.92,4.29,4.29,0,0,0-1.4,3.26H48.44q.5-7.79,9.85-7.78,9.18,0,9.18,6.84v12.28q0,1.17,1.26,1.17Zm-8.82-1.12a5.72,5.72,0,0,0,1.89-4.59v-2.43a5.48,5.48,0,0,1-2.88.94l-3.24.36a7.31,7.31,0,0,0-3.73,1.24,3.55,3.55,0,0,0,0,5.17,4.89,4.89,0,0,0,3.22.93A7.07,7.07,0,0,0,61.17,438.83Z" transform="translate(1081.73 -66.69)"/><path class="cls-5" d="M92.76,422.94q2.88,3.29,2.88,8.87t-2.88,8.82A9.8,9.8,0,0,1,85,444a8.62,8.62,0,0,1-7.56-3.78v12.06H73v-32h4.32v3.51a8.61,8.61,0,0,1,7.74-4A9.77,9.77,0,0,1,92.76,422.94Zm-8.59,17.15a6.11,6.11,0,0,0,5-2.25,9.57,9.57,0,0,0,1.8-6.21,9,9,0,0,0-1.8-6,6.85,6.85,0,0,0-9.94.05,9.37,9.37,0,0,0-1.85,6.12,9.17,9.17,0,0,0,1.85,6.07A6,6,0,0,0,84.17,440.09Z" transform="translate(1081.73 -66.69)"/><path class="cls-5" d="M112.47,419.88v4.28h-1.12a7.7,7.7,0,0,0-5.36,1.71,6.33,6.33,0,0,0-1.89,4.95v12.6H99.6V420.2h4.32v4.14a7.51,7.51,0,0,1,7.24-4.5A12.24,12.24,0,0,1,112.47,419.88Z" transform="translate(1081.73 -66.69)"/><path class="cls-5" d="M124.94,444a11,11,0,0,1-8.33-3.33,13.86,13.86,0,0,1,0-17.69,12.2,12.2,0,0,1,16.65,0,14,14,0,0,1,0,17.69A11,11,0,0,1,124.94,444Zm5-6.08a11,11,0,0,0,0-12.15,6.75,6.75,0,0,0-10,0,10.95,10.95,0,0,0,0,12.15,6.73,6.73,0,0,0,10,0Z" transform="translate(1081.73 -66.69)"/><path class="cls-5" d="M154.81,420.2h4.77l-8.91,23.22h-5l-8.87-23.22h4.87l3.14,8.5c2.13,6.33,3.28,9.78,3.42,10.35.09-.3.29-.9.59-1.8s.72-2.14,1.26-3.71,1.08-3.19,1.62-4.84Z" transform="translate(1081.73 -66.69)"/><path class="cls-5" d="M162.06,416.91V412.1h4.59v4.81Zm0,26.51V420.2h4.5v23.22Z" transform="translate(1081.73 -66.69)"/><path class="cls-5" d="M189.24,421.79a8.16,8.16,0,0,1,2.16,6.06v15.57h-4.5V428.48q0-4.86-4.91-4.86a5.74,5.74,0,0,0-4.05,1.71,6.65,6.65,0,0,0-1.8,5v13.1h-4.5V420.2H176v3.46a8.3,8.3,0,0,1,7.29-4A8.17,8.17,0,0,1,189.24,421.79Z" transform="translate(1081.73 -66.69)"/><path class="cls-5" d="M213.72,420.2H218v22.36a9.8,9.8,0,0,1-2.88,7.49q-2.88,2.73-8.19,2.73a11.49,11.49,0,0,1-7.22-2.07,7.81,7.81,0,0,1-3-5.67h4.5q.54,4.09,5.8,4.09,6.53,0,6.53-6.48v-2.56a8.74,8.74,0,0,1-7.47,3.6,9.78,9.78,0,0,1-7.74-3.29,14.47,14.47,0,0,1,0-17.46,9.71,9.71,0,0,1,7.69-3.28,8.72,8.72,0,0,1,7.7,3.82Zm-1.87,17.43a10.67,10.67,0,0,0,0-11.92,6.71,6.71,0,0,0-9.92,0,10.49,10.49,0,0,0,0,11.9,6.71,6.71,0,0,0,9.92,0Z" transform="translate(1081.73 -66.69)"/><text class="cls-6" transform="translate(912.63 430.73)"><tspan class="cls-7">P</tspan><tspan class="cls-8" x="29.03" y="0">RE</tspan><tspan class="cls-9" x="86.13" y="0">P</tspan><tspan class="cls-10" x="110.25" y="0">A</tspan><tspan class="cls-11" x="141.75" y="0">R</tspan><tspan class="cls-12" x="170.73" y="0">A</tspan><tspan class="cls-13" x="196.92" y="0">T</tspan><tspan class="cls-14" x="224.77" y="0">IO</tspan><tspan class="cls-15" x="270.22" y="0">N </tspan><tspan class="cls-8" x="311.53" y="0">COUR</tspan><tspan class="cls-16" x="439.55" y="0">S</tspan><tspan x="468.17" y="0">E</tspan></text><path class="cls-1" d="M1760.73,762.64c177.65-11,319.06-155.88,324.59-335" transform="translate(1081.73 -66.69)"/><path class="cls-1" d="M2084.81,395c-11-177.65-155.87-319.06-335-324.59" transform="translate(1081.73 -66.69)"/><path class="cls-1" d="M1717.21,71c-177.65,11-319,155.87-324.58,335" transform="translate(1081.73 -66.69)"/><path class="cls-1" d="M1393.14,438.56c11,177.65,155.87,319.05,334.95,324.58" transform="translate(1081.73 -66.69)"/><path class="cls-2" d="M1739,763.31h0M1392.46,416.8h0M1739,70.29h0M2085.48,416.8h0" transform="translate(1081.73 -66.69)"/><text class="cls-4" transform="translate(2802.41 268.14)">4</text><path class="cls-5" d="M1621.84,430.66l-3.15-8.32h-14.4l-3.11,8.32h-5l12.51-32h5.53l12.69,32Zm-16-12.51h11.29l-.67-1.75q-2.39-5.94-5-13.14-3.11,8.28-5,13.14Z" transform="translate(1081.73 -66.69)"/><path class="cls-5" d="M1637.72,402.27q-3,0-3,3.06v2.11h4.86v3.69h-4.86v19.53h-4.5V411.13h-3.74v-3.69h3.74v-2.11q0-6.84,7-6.84c.45,0,1.31,0,2.57.13v3.65Z" transform="translate(1081.73 -66.69)"/><path class="cls-5" d="M1654.37,411.13h-4.68v13.95a1.82,1.82,0,0,0,.61,1.51,3.46,3.46,0,0,0,2,.47h2v3.6c-1,.09-1.9.13-2.74.13a7.72,7.72,0,0,1-4.86-1.25,4.88,4.88,0,0,1-1.58-4.05V411.13h-3.73v-3.69h3.73v-6.66h4.5v6.66h4.68Z" transform="translate(1081.73 -66.69)"/><path class="cls-5" d="M1678.49,420.54H1661a8.17,8.17,0,0,0,2,5.15,6.25,6.25,0,0,0,4.64,1.73q4.41,0,5.76-3.87H1678a10,10,0,0,1-3.66,5.6,10.86,10.86,0,0,1-6.73,2.05,10.43,10.43,0,0,1-8.06-3.33,14.24,14.24,0,0,1,0-17.64,10.33,10.33,0,0,1,8-3.33,10.11,10.11,0,0,1,8.1,3.47,13.25,13.25,0,0,1,2.92,8.86Zm-15.36-8.24A7.63,7.63,0,0,0,1661,417h12.83a7.56,7.56,0,0,0-2-4.57,5.88,5.88,0,0,0-4.39-1.73A6,6,0,0,0,1663.13,412.3Z" transform="translate(1081.73 -66.69)"/><path class="cls-5" d="M1695.37,407.13v4.27h-1.13a7.69,7.69,0,0,0-5.35,1.71,6.33,6.33,0,0,0-1.89,4.95v12.6h-4.5V407.44h4.32v4.14a7.5,7.5,0,0,1,7.24-4.5A11.36,11.36,0,0,1,1695.37,407.13Z" transform="translate(1081.73 -66.69)"/><path class="cls-5" d="M1729.3,427.2v3.46a16.54,16.54,0,0,1-2.21.13,5.38,5.38,0,0,1-3.21-.78,3.52,3.52,0,0,1-1.29-2.5q-2.34,3.69-7.56,3.69a9.31,9.31,0,0,1-6-1.82,6.2,6.2,0,0,1-2.23-5.06q0-6.3,8.73-7.2l3.42-.36a5.09,5.09,0,0,0,2.64-.93,2.47,2.47,0,0,0,.83-2,2.89,2.89,0,0,0-1.11-2.54,6.41,6.41,0,0,0-3.66-.79,6.79,6.79,0,0,0-4,.92,4.32,4.32,0,0,0-1.39,3.27h-4.46q.49-7.79,9.86-7.79,9.18,0,9.18,6.84V426q0,1.17,1.26,1.17Zm-8.82-1.13a5.72,5.72,0,0,0,1.89-4.59v-2.43a5.47,5.47,0,0,1-2.88.95l-3.24.36a7.45,7.45,0,0,0-3.74,1.23,3.58,3.58,0,0,0,0,5.18,4.94,4.94,0,0,0,3.22.92A7.07,7.07,0,0,0,1720.48,426.07Z" transform="translate(1081.73 -66.69)"/><path class="cls-5" d="M1749.14,398.62h4.5v32h-4.32v-3.42a8.62,8.62,0,0,1-7.69,4,9.77,9.77,0,0,1-7.74-3.28q-2.88-3.29-2.88-8.87t2.88-8.86a9.78,9.78,0,0,1,7.74-3.29,8.63,8.63,0,0,1,7.51,3.69Zm-6.66,28.71a6.08,6.08,0,0,0,5-2.21,9.09,9.09,0,0,0,1.8-6.07,9.42,9.42,0,0,0-1.8-6.12,6.16,6.16,0,0,0-5-2.16,6.07,6.07,0,0,0-5,2.25,9.52,9.52,0,0,0-1.84,6.21,8.83,8.83,0,0,0,1.84,6A6.27,6.27,0,0,0,1742.48,427.33Z" transform="translate(1081.73 -66.69)"/><path class="cls-5" d="M1769.17,431.2a11,11,0,0,1-8.33-3.33,13.84,13.84,0,0,1,0-17.68,12.18,12.18,0,0,1,16.65,0,14,14,0,0,1,0,17.68A11,11,0,0,1,1769.17,431.2Zm5-6.08a11,11,0,0,0,0-12.14,6.11,6.11,0,0,0-5-2.21,6.19,6.19,0,0,0-5,2.21,10.93,10.93,0,0,0,0,12.14,6.16,6.16,0,0,0,5,2.21A6.08,6.08,0,0,0,1774.14,425.12Z" transform="translate(1081.73 -66.69)"/><path class="cls-5" d="M1804.4,410.19q2.88,3.29,2.88,8.86t-2.88,8.82a9.8,9.8,0,0,1-7.74,3.33,8.62,8.62,0,0,1-7.56-3.78v12.06h-4.5v-32h4.32V411a8.61,8.61,0,0,1,7.74-4.05A9.78,9.78,0,0,1,1804.4,410.19Zm-8.59,17.14a6.11,6.11,0,0,0,5-2.25,9.57,9.57,0,0,0,1.8-6.21,9,9,0,0,0-1.8-6,6.84,6.84,0,0,0-9.94,0,9.37,9.37,0,0,0-1.85,6.12,9.15,9.15,0,0,0,1.85,6.07A6,6,0,0,0,1795.81,427.33Z" transform="translate(1081.73 -66.69)"/><path class="cls-5" d="M1821,411.13h-4.68v13.95a1.81,1.81,0,0,0,.6,1.51,3.46,3.46,0,0,0,2,.47h2v3.6c-1,.09-1.91.13-2.75.13a7.72,7.72,0,0,1-4.86-1.25,4.88,4.88,0,0,1-1.57-4.05V411.13h-3.74v-3.69h3.74v-6.66h4.5v6.66H1821Z" transform="translate(1081.73 -66.69)"/><path class="cls-5" d="M1824.56,404.16v-4.82h4.59v4.82Zm0,26.5V407.44h4.5v23.22Z" transform="translate(1081.73 -66.69)"/><path class="cls-5" d="M1844.59,431.2a11,11,0,0,1-8.33-3.33,13.84,13.84,0,0,1,0-17.68,12.18,12.18,0,0,1,16.65,0,14,14,0,0,1,0,17.68A11,11,0,0,1,1844.59,431.2Zm5-6.08a11,11,0,0,0,0-12.14,6.11,6.11,0,0,0-5-2.21,6.19,6.19,0,0,0-5,2.21,10.93,10.93,0,0,0,0,12.14,6.16,6.16,0,0,0,5,2.21A6.08,6.08,0,0,0,1849.56,425.12Z" transform="translate(1081.73 -66.69)"/><path class="cls-5" d="M1877.62,409a8.16,8.16,0,0,1,2.16,6v15.57h-4.5V415.72q0-4.86-4.91-4.86a5.74,5.74,0,0,0-4,1.71,6.67,6.67,0,0,0-1.8,5v13.09H1860V407.44h4.32v3.47a8.31,8.31,0,0,1,7.29-4A8.15,8.15,0,0,1,1877.62,409Z" transform="translate(1081.73 -66.69)"/><path class="cls-5" d="M1591.1,452.62h4.82v32h-4.82V470.4h-16.51v14.26h-4.82v-32h4.82V466h16.51Z" transform="translate(1081.73 -66.69)"/><path class="cls-5" d="M1624.58,484.66l-3.15-8.32H1607l-3.1,8.32h-5l12.51-32H1617l12.69,32Zm-16-12.51h11.3l-.68-1.75q-2.39-5.94-5-13.14-3.11,8.28-5,13.14Z" transform="translate(1081.73 -66.69)"/><path class="cls-5" d="M1649.56,452.62h5l-11.7,32h-5.49l-11.92-32h5.08l6.71,18.63q1.66,4.68,2.88,8.82.67-2.25,2.88-8.82Z" transform="translate(1081.73 -66.69)"/><path class="cls-5" d="M1680.79,456.94h-18V466h16.34v4.23h-16.34v10.12h17.91v4.32h-22.72v-32h22.86Z" transform="translate(1081.73 -66.69)"/><path class="cls-5" d="M1695.82,480.83q-4.23-4.5-4.23-12.19t4.18-12.19a14.19,14.19,0,0,1,10.94-4.55,14.9,14.9,0,0,1,9.13,2.84,13.29,13.29,0,0,1,4.91,8.5h-4.86a9.15,9.15,0,0,0-3.31-5.29,9.64,9.64,0,0,0-5.87-1.77,9,9,0,0,0-7.38,3.35q-2.74,3.35-2.75,9.11t2.75,9.11a9,9,0,0,0,7.38,3.36,9.92,9.92,0,0,0,6.21-2.12,9,9,0,0,0,3.19-6.16h4.82a13,13,0,0,1-4.64,9.27,14.62,14.62,0,0,1-9.58,3.28A14.09,14.09,0,0,1,1695.82,480.83Z" transform="translate(1081.73 -66.69)"/><path class="cls-5" d="M1746.76,452.62h4.81v32h-4.81V470.4h-16.52v14.26h-4.81v-32h4.81V466h16.52Z" transform="translate(1081.73 -66.69)"/><path class="cls-5" d="M1757.6,484.66v-32h4.82v32Z" transform="translate(1081.73 -66.69)"/><path class="cls-5" d="M1773.26,480.34H1789v4.32h-20.51v-32h4.81Z" transform="translate(1081.73 -66.69)"/><path class="cls-5" d="M1804.45,452.62q7.41,0,11.69,4.28t4.19,11.74q0,7.47-4.19,11.75t-11.69,4.27H1793v-32Zm0,27.81q5.26,0,8.08-3.06t2.81-8.73q0-5.67-2.81-8.73t-8.08-3.06h-6.57v23.58Z" transform="translate(1081.73 -66.69)"/><path class="cls-5" d="M1849.53,480.75a9.33,9.33,0,0,0,1.08,3.91h-4.95a7.56,7.56,0,0,1-.94-4.09l-.14-3.42c-.09-2.07-.55-3.54-1.39-4.39a5.47,5.47,0,0,0-4-1.28h-9.32v13.18H1825v-32h14c3.42,0,6.12.79,8.08,2.36a7.89,7.89,0,0,1,3,6.51,8.24,8.24,0,0,1-1.42,4.92,7.43,7.43,0,0,1-4,2.82,5.89,5.89,0,0,1,3.42,2.27,8,8,0,0,1,1.17,4.25Zm-10.44-13.28a6.31,6.31,0,0,0,4.39-1.44,5.2,5.2,0,0,0,1.6-4.09,4.66,4.66,0,0,0-1.64-3.87,7.44,7.44,0,0,0-4.71-1.31h-8.91v10.71Z" transform="translate(1081.73 -66.69)"/><path class="cls-5" d="M1877.75,456.94h-18V466H1876v4.23H1859.7v10.12h17.91v4.32h-22.72v-32h22.86Z" transform="translate(1081.73 -66.69)"/><path class="cls-5" d="M1903.62,452.62h4.64v32h-5.54l-9.85-15.52q-4.32-6.75-6.26-10.31.18,5.35.18,16.11v9.72h-4.68v-32h5.54l9.9,15.53q4,6.35,6.25,10.35-.18-5.4-.18-16.16Z" transform="translate(1081.73 -66.69)"/></svg>