<svg id="Layer_1" data-name="Layer 1" xmlns="http://www.w3.org/2000/svg" viewBox="0 0 351.09 290.37"><defs><style>.cls-1{fill:#dedfc3;}.cls-2{fill:#6426ef;}</style></defs><path class="cls-1" d="M798.71,243c1-.64,2.16-1.19,3.13-1.92,54.89-41.54,135.22-8.82,145.62,59.23,3.52,23-3,43.66-14.28,63.26-8.46,14.7-19.38,27.5-31.38,39.4a14.9,14.9,0,0,1-1.37,1l-8-13.84c3.69-4.1,7.42-8.08,11-12.22C915.24,364.06,925.15,349,930,331.16c10-37.06-12-76.22-49.44-88.68-44.83-14.91-92.49,14.84-98.73,61.65-.45,3.33-.73,6.67-1.12,10.29H764.9a80.13,80.13,0,0,0-14.83-44.67l8.41-14.51L773,276.08c4.47-6.73,9.36-14.11,14.25-21.49Z" transform="translate(-597.32 -198.12)"/><path class="cls-1" d="M692.09,442.58c-13-10.28-26.5-20-38.88-31-21-18.59-38.86-39.69-49.53-66.18C581.73,290.92,619.41,232.92,673.52,224a90.27,90.27,0,0,1,63.2,12.15c1.27.77,2.48,1.63,4,2.61-2.66,4.62-5.24,9.1-7.95,13.79a78.6,78.6,0,0,0-32.54-13.13c-39.93-6.66-80.25,22.83-86.14,62.9-2.21,15,.53,29,6.71,42.58,8.94,19.62,22.51,35.77,38.25,50.25L671.13,406c13.11,9.79,26.19,19.62,39.34,29.35,3.48,2.57,7.18,4.83,10.78,7.24Z" transform="translate(-597.32 -198.12)"/><path class="cls-2" d="M874.58,406.59Q860.66,382.28,846.74,358q-22.66-39.34-45.41-78.64c-.55-1-1.07-1.95-1.69-3.07l11.13-12.45c37.47,64.9,74.77,129.51,112.32,194.57-1,.11-1.59.22-2.14.22H831.51c-.74,0-1.48-.13-2.22-.19l24.36-15.81h42l-13.14-22.36Z" transform="translate(-597.32 -198.12)"/><path class="cls-2" d="M671.13,406,659,395.16Q687.45,346,715.9,296.79q27.76-48.08,55.5-96.16c.37-.64.75-1.27,1.49-2.51L798.71,243,787.2,254.59,772.76,230l-14.28,25.27-8.41,14.51q-19.19,33.09-38.37,66.18Q691.41,371,671.13,406Z" transform="translate(-597.32 -198.12)"/><path class="cls-2" d="M692.09,442.58l29.16,0,82.34.09a11.42,11.42,0,0,1,4.31.6,79.67,79.67,0,0,0-8,4.87c-11.24,8.73-23.78,10.91-38,10.68-44.9-.75-89.82-.27-134.74-.27h-4.67c8.27-14.32,16.2-28.09,24.36-42.23l12.37,10.4c-2.94,5.12-5.87,10.23-9.07,15.83Z" transform="translate(-597.32 -198.12)"/><path class="cls-1" d="M853.65,442.58l-24.36,15.81c-14,7.67-27.92,15.41-42,23-4.7,2.54-9.63,4.63-14.87,7.12L730.82,467l.29-.95c10.52,0,21.06-.36,31.55.21,3.47.18,6.81,2.77,10.5,4.38,8-4.06,16.2-7.91,24.1-12.39,26.69-15.16,52.82-31.21,76.34-51.13a5.5,5.5,0,0,1,1-.55l7.94,13.63c-.93.82-1.81,1.7-2.79,2.45Q866.7,432.65,853.65,442.58Z" transform="translate(-597.32 -198.12)"/></svg>