<svg id="Layer_1" data-name="Layer 1" xmlns="http://www.w3.org/2000/svg" viewBox="0 0 638.84 403.39"><defs><style>.cls-1{fill:#fff;}.cls-2,.cls-3,.cls-4,.cls-5,.cls-6,.cls-7,.cls-9{fill:none;stroke:#1d1d1b;stroke-miterlimit:10;}.cls-2{stroke-dasharray:4.99 4.99;}.cls-4{stroke-dasharray:16.22 16.22;}.cls-5{stroke-dasharray:14.61 14.61;}.cls-6{stroke-dasharray:14.61 14.61;}.cls-7{stroke-dasharray:16.21 16.21;}.cls-8{fill:#1d1d1b;}.cls-9{stroke-dasharray:4.92 4.92;}</style></defs><circle class="cls-1" cx="178.36" cy="225.03" r="177.86"/><circle class="cls-2" cx="178.36" cy="225.03" r="177.86"/><circle class="cls-1" cx="460.48" cy="225.03" r="177.86"/><circle class="cls-2" cx="460.48" cy="225.03" r="177.86"/><path class="cls-1" d="M617,327.85a119.18,119.18,0,0,0-201.4-76.6,119.18,119.18,0,0,1,1.05,172.84A119.17,119.17,0,0,0,617,327.85Z" transform="translate(-96.36 -112.14)"/><path class="cls-3" d="M421.14,246.23q-2.86,2.43-5.56,5c1.82,1.72,3.59,3.48,5.3,5.3" transform="translate(-96.36 -112.14)"/><path class="cls-4" d="M431.15,269.09a119.18,119.18,0,0,1-4,143.48" transform="translate(-96.36 -112.14)"/><path class="cls-3" d="M421.87,418.73q-2.53,2.76-5.24,5.36,2.73,2.57,5.63,5" transform="translate(-96.36 -112.14)"/><path class="cls-5" d="M434.06,437.64a119.17,119.17,0,1,0-7.21-196" transform="translate(-96.36 -112.14)"/><path class="cls-1" d="M379.36,346.49a118.9,118.9,0,0,1,36.22-95.24,119.18,119.18,0,1,0,1.05,172.84A118.76,118.76,0,0,1,379.36,346.49Z" transform="translate(-96.36 -112.14)"/><path class="cls-3" d="M410.34,256.62c1.69-1.84,3.43-3.63,5.24-5.37-1.82-1.71-3.7-3.36-5.62-4.95" transform="translate(-96.36 -112.14)"/><path class="cls-6" d="M398.16,237.69a119.19,119.19,0,1,0,7.2,196" transform="translate(-96.36 -112.14)"/><path class="cls-3" d="M411.07,429.11c1.9-1.61,3.76-3.29,5.56-5q-2.73-2.56-5.3-5.3" transform="translate(-96.36 -112.14)"/><path class="cls-7" d="M401.05,406.27a119.23,119.23,0,0,1,4-143.5" transform="translate(-96.36 -112.14)"/><path class="cls-1" d="M452.92,346.61a119,119,0,0,0-37.34-95.36,119.19,119.19,0,0,0,1.05,172.84A118.7,118.7,0,0,0,452.92,346.61Z" transform="translate(-96.36 -112.14)"/><path class="cls-3" d="M420.88,256.55c-1.71-1.82-3.48-3.58-5.3-5.3-1.81,1.74-3.55,3.53-5.24,5.37" transform="translate(-96.36 -112.14)"/><path class="cls-7" d="M400.22,269.28A119.21,119.21,0,0,0,406,412.7" transform="translate(-96.36 -112.14)"/><path class="cls-3" d="M411.33,418.79q2.57,2.73,5.3,5.3,2.7-2.59,5.24-5.36" transform="translate(-96.36 -112.14)"/><path class="cls-4" d="M432,406.08a119.22,119.22,0,0,0-5.78-143.44" transform="translate(-96.36 -112.14)"/><path class="cls-8" d="M240.24,347.15h-2.46v-.89h6v.89h-2.47v7.2h-1Z" transform="translate(-96.36 -112.14)"/><path class="cls-8" d="M245.71,346.26v3.39h3.91v-3.39h1v8.09h-1v-3.79h-3.91v3.79h-1.05v-8.09Z" transform="translate(-96.36 -112.14)"/><path class="cls-8" d="M256.67,350.56h-3.14v2.91H257v.88h-4.54v-8.09h4.36v.88h-3.32v2.55h3.14Z" transform="translate(-96.36 -112.14)"/><path class="cls-8" d="M260.94,346.37a10.49,10.49,0,0,1,1.9-.17,3.31,3.31,0,0,1,2.22.59,1.69,1.69,0,0,1,.67,1.43,1.91,1.91,0,0,1-1.36,1.77v0a2.07,2.07,0,0,1,1.66,2,2.15,2.15,0,0,1-.68,1.62,4,4,0,0,1-2.79.76,11.63,11.63,0,0,1-1.62-.1Zm1,3.31h.95c1.1,0,1.75-.57,1.75-1.35,0-.95-.72-1.32-1.78-1.32a4.21,4.21,0,0,0-.92.07Zm0,3.88a6.56,6.56,0,0,0,.87,0c1.08,0,2.08-.39,2.08-1.57s-.95-1.56-2.09-1.56H262Z" transform="translate(-96.36 -112.14)"/><path class="cls-8" d="M268.48,346.26v8.09h-1v-8.09Z" transform="translate(-96.36 -112.14)"/><path class="cls-8" d="M270.31,346.37a10.66,10.66,0,0,1,2-.17,3.32,3.32,0,0,1,2.34.66,2,2,0,0,1,.64,1.54,2.13,2.13,0,0,1-1.53,2.06v0a2,2,0,0,1,1.19,1.63,13.27,13.27,0,0,0,.62,2.22h-1.08a11.07,11.07,0,0,1-.54-1.93c-.24-1.12-.67-1.54-1.62-1.58h-1v3.51h-1Zm1,3.68h1.07c1.11,0,1.82-.61,1.82-1.53s-.75-1.5-1.86-1.51a4.3,4.3,0,0,0-1,.09Z" transform="translate(-96.36 -112.14)"/><path class="cls-8" d="M278.41,347.15H276v-.89h6v.89h-2.47v7.2h-1Z" transform="translate(-96.36 -112.14)"/><path class="cls-8" d="M283.88,346.26v3.39h3.91v-3.39h1v8.09h-1v-3.79h-3.91v3.79h-1v-8.09Z" transform="translate(-96.36 -112.14)"/><path class="cls-8" d="M293.2,346.26h4.36v.88h-3.31v2.69h3.06v.86h-3.06v3.66H293.2Z" transform="translate(-96.36 -112.14)"/><path class="cls-8" d="M299.42,351.8l-.84,2.55H297.5l2.75-8.09h1.26l2.75,8.09h-1.11l-.87-2.55Zm2.65-.81-.79-2.33c-.18-.53-.3-1-.42-1.47h0c-.12.48-.25,1-.4,1.46l-.8,2.34Z" transform="translate(-96.36 -112.14)"/><path class="cls-8" d="M312.22,350.8c-.06-1.13-.13-2.49-.12-3.49h0c-.27.94-.61,1.95-1,3.07l-1.42,3.92h-.79l-1.31-3.85c-.39-1.14-.71-2.18-.94-3.14h0c0,1-.09,2.36-.16,3.57l-.21,3.47h-1l.56-8.09h1.34l1.38,3.91c.33,1,.61,1.89.81,2.73h0c.2-.82.49-1.71.85-2.73l1.44-3.91h1.33l.5,8.09h-1Z" transform="translate(-96.36 -112.14)"/><path class="cls-8" d="M316.1,346.26v8.09h-1v-8.09Z" transform="translate(-96.36 -112.14)"/><path class="cls-8" d="M317.92,346.26H319v7.21h3.45v.88h-4.5Z" transform="translate(-96.36 -112.14)"/><path class="cls-8" d="M324.38,354.35v-3.43l-2.56-4.66H323l1.14,2.23c.31.62.55,1.11.8,1.67h0c.23-.53.5-1.05.81-1.67l1.17-2.23h1.18l-2.71,4.65v3.44Z" transform="translate(-96.36 -112.14)"/><path class="cls-8" d="M387.09,348.07h-2.46v-.89h6v.89h-2.47v7.19h-1.05Z" transform="translate(-96.36 -112.14)"/><path class="cls-8" d="M392.56,347.18v3.38h3.91v-3.38h1.06v8.08h-1.06v-3.79h-3.91v3.79h-1v-8.08Z" transform="translate(-96.36 -112.14)"/><path class="cls-8" d="M403.53,351.47h-3.15v2.92h3.51v.87h-4.55v-8.08h4.37v.87h-3.33v2.56h3.15Z" transform="translate(-96.36 -112.14)"/><path class="cls-8" d="M409.1,352.72l-.84,2.54h-1.08l2.74-8.08h1.26l2.76,8.08h-1.11l-.87-2.54Zm2.65-.82-.8-2.32c-.18-.53-.3-1-.42-1.48h0c-.12.48-.25,1-.41,1.47l-.79,2.33Z" transform="translate(-96.36 -112.14)"/><path class="cls-8" d="M415.13,347.29a14.44,14.44,0,0,1,2.22-.17,4.6,4.6,0,0,1,3.27,1,3.71,3.71,0,0,1,1.14,2.9,4.24,4.24,0,0,1-1.16,3.14,4.94,4.94,0,0,1-3.57,1.16,17,17,0,0,1-1.9-.09Zm1.05,7.14a6.25,6.25,0,0,0,1.05.06,3.1,3.1,0,0,0,3.44-3.43c0-1.9-1.06-3.11-3.27-3.11a6,6,0,0,0-1.22.1Z" transform="translate(-96.36 -112.14)"/><path class="cls-8" d="M430,351.14c0,2.78-1.69,4.25-3.75,4.25s-3.64-1.65-3.64-4.1,1.6-4.24,3.76-4.24S430,348.74,430,351.14Zm-6.27.13c0,1.73.93,3.27,2.58,3.27s2.59-1.52,2.59-3.36c0-1.6-.84-3.28-2.58-3.28S423.76,349.49,423.76,351.27Z" transform="translate(-96.36 -112.14)"/><path class="cls-8" d="M431.39,347.27a12.67,12.67,0,0,1,2-.15,3.32,3.32,0,0,1,2.27.67,2.15,2.15,0,0,1,.71,1.69,2.42,2.42,0,0,1-.62,1.73,3.38,3.38,0,0,1-2.48.89,3.44,3.44,0,0,1-.83-.08v3.24h-1.05Zm1.05,3.9a3.38,3.38,0,0,0,.86.09c1.26,0,2-.62,2-1.73s-.76-1.58-1.91-1.58a4.26,4.26,0,0,0-1,.08Z" transform="translate(-96.36 -112.14)"/><path class="cls-8" d="M439.31,348.07h-2.46v-.89h6v.89h-2.47v7.19h-1.06Z" transform="translate(-96.36 -112.14)"/><path class="cls-8" d="M447.92,351.47h-3.14v2.92h3.51v.87h-4.55v-8.08h4.37v.87h-3.33v2.56h3.14Z" transform="translate(-96.36 -112.14)"/><path class="cls-8" d="M453.83,351.47h-3.14v2.92h3.5v.87h-4.55v-8.08H454v.87h-3.32v2.56h3.14Z" transform="translate(-96.36 -112.14)"/><path class="cls-8" d="M449.54,248l-.84,2.54h-1.08l2.75-8.08h1.26l2.76,8.08h-1.12l-.86-2.54Zm2.65-.81-.79-2.33c-.18-.53-.3-1-.42-1.48h0c-.12.48-.25,1-.41,1.47l-.79,2.34Z" transform="translate(-96.36 -112.14)"/><path class="cls-8" d="M455.58,242.61a14.44,14.44,0,0,1,2.22-.17,4.6,4.6,0,0,1,3.27,1,3.71,3.71,0,0,1,1.14,2.9,4.28,4.28,0,0,1-1.16,3.14,5,5,0,0,1-3.58,1.17,16.72,16.72,0,0,1-1.89-.1Zm1,7.15a7.79,7.79,0,0,0,1.06.06,3.11,3.11,0,0,0,3.44-3.43c0-1.91-1.07-3.12-3.27-3.12a6,6,0,0,0-1.23.11Z" transform="translate(-96.36 -112.14)"/><path class="cls-8" d="M470.48,246.46c0,2.78-1.69,4.26-3.75,4.26s-3.64-1.66-3.64-4.11,1.6-4.24,3.76-4.24S470.48,244.06,470.48,246.46Zm-6.27.13c0,1.73.93,3.27,2.58,3.27s2.59-1.52,2.59-3.35c0-1.61-.84-3.29-2.58-3.29S464.21,244.81,464.21,246.59Z" transform="translate(-96.36 -112.14)"/><path class="cls-8" d="M471.84,242.6a11.33,11.33,0,0,1,2-.16,3.34,3.34,0,0,1,2.27.67,2.19,2.19,0,0,1,.71,1.69,2.38,2.38,0,0,1-.63,1.73,3.34,3.34,0,0,1-2.47.89,3.61,3.61,0,0,1-.84-.07v3.23h-1Zm1,3.89a3.52,3.52,0,0,0,.87.09c1.26,0,2-.61,2-1.73s-.75-1.58-1.9-1.58a4.36,4.36,0,0,0-1,.08Z" transform="translate(-96.36 -112.14)"/><path class="cls-8" d="M479.76,243.39H477.3v-.89h6v.89h-2.48v7.19h-1.05Z" transform="translate(-96.36 -112.14)"/><path class="cls-8" d="M485.23,242.5v8.08h-1V242.5Z" transform="translate(-96.36 -112.14)"/><path class="cls-8" d="M494,246.46c0,2.78-1.69,4.26-3.75,4.26s-3.63-1.66-3.63-4.11,1.59-4.24,3.75-4.24S494,244.06,494,246.46Zm-6.27.13c0,1.73.94,3.27,2.58,3.27s2.59-1.52,2.59-3.35c0-1.61-.84-3.29-2.58-3.29S487.69,244.81,487.69,246.59Z" transform="translate(-96.36 -112.14)"/><path class="cls-8" d="M495.32,250.58V242.5h1.14l2.59,4.09a22.28,22.28,0,0,1,1.45,2.63l0,0c-.1-1.08-.12-2.06-.12-3.32V242.5h1v8.08h-1.05l-2.57-4.1a26.34,26.34,0,0,1-1.51-2.7l0,0c.06,1,.09,2,.09,3.33v3.45Z" transform="translate(-96.36 -112.14)"/><path class="cls-8" d="M503.08,249.31a3.65,3.65,0,0,0,1.87.53c1.06,0,1.69-.56,1.69-1.38s-.43-1.19-1.52-1.61c-1.33-.46-2.14-1.15-2.14-2.29a2.32,2.32,0,0,1,2.61-2.19,3.73,3.73,0,0,1,1.79.39l-.29.86a3.11,3.11,0,0,0-1.53-.39c-1.1,0-1.52.66-1.52,1.21,0,.76.49,1.13,1.6,1.56,1.37.53,2.07,1.19,2.07,2.38s-.93,2.32-2.83,2.32a4.18,4.18,0,0,1-2.07-.51Z" transform="translate(-96.36 -112.14)"/><path class="cls-8" d="M513,248l-.84,2.54h-1.08l2.74-8.08h1.26l2.76,8.08h-1.11l-.87-2.54Zm2.65-.81-.79-2.33c-.18-.53-.3-1-.42-1.48h0c-.12.48-.25,1-.41,1.47l-.79,2.34Z" transform="translate(-96.36 -112.14)"/><path class="cls-8" d="M525,250.22a7.52,7.52,0,0,1-2.49.45,3.8,3.8,0,0,1-4.15-4.08,4.06,4.06,0,0,1,4.38-4.17,5,5,0,0,1,2,.37l-.26.85a4.19,4.19,0,0,0-1.78-.35,3,3,0,0,0-3.25,3.25,3,3,0,0,0,3.11,3.26,3.46,3.46,0,0,0,1.4-.21v-2.41h-1.65v-.84H525Z" transform="translate(-96.36 -112.14)"/><path class="cls-8" d="M530.78,246.79h-3.14v2.92h3.5v.87H526.6V242.5H531v.88h-3.32v2.55h3.14Z" transform="translate(-96.36 -112.14)"/><path class="cls-8" d="M532.5,250.58V242.5h1.14l2.59,4.09a22.28,22.28,0,0,1,1.45,2.63l0,0c-.09-1.08-.12-2.06-.12-3.32V242.5h1v8.08h-1.06l-2.56-4.1a24.7,24.7,0,0,1-1.52-2.7l0,0c.06,1,.08,2,.08,3.33v3.45Z" transform="translate(-96.36 -112.14)"/><path class="cls-8" d="M546,250.32a5.2,5.2,0,0,1-2.13.38,3.77,3.77,0,0,1-4-4.09,4,4,0,0,1,4.22-4.24,4.29,4.29,0,0,1,1.92.36l-.26.85a3.8,3.8,0,0,0-1.63-.34,3,3,0,0,0-3.15,3.34,2.94,2.94,0,0,0,3.1,3.25,4.1,4.1,0,0,0,1.71-.34Z" transform="translate(-96.36 -112.14)"/><path class="cls-8" d="M549.19,250.58v-3.43l-2.56-4.65h1.19l1.14,2.23c.31.61.55,1.1.81,1.67h0c.23-.53.5-1.06.82-1.67l1.16-2.23H553l-2.71,4.64v3.44Z" transform="translate(-96.36 -112.14)"/><path class="cls-8" d="M468.15,265.46l3.35-8.69h.81L469,265.46Z" transform="translate(-96.36 -112.14)"/><path class="cls-8" d="M482.54,261.43c-.05-1.12-.13-2.48-.11-3.49h0c-.28.95-.61,2-1,3.07l-1.43,3.93h-.79l-1.31-3.85c-.38-1.14-.7-2.19-.93-3.15h0c0,1-.08,2.37-.15,3.58l-.22,3.46h-1l.56-8.08h1.33l1.38,3.91c.34,1,.61,1.88.82,2.72h0c.21-.81.49-1.7.85-2.72l1.44-3.91h1.34l.5,8.08h-1Z" transform="translate(-96.36 -112.14)"/><path class="cls-8" d="M489.57,261.19h-3.15v2.92h3.51V265h-4.55V256.9h4.37v.88h-3.33v2.55h3.15Z" transform="translate(-96.36 -112.14)"/><path class="cls-8" d="M491.29,257a14.3,14.3,0,0,1,2.21-.17,4.65,4.65,0,0,1,3.28,1,3.71,3.71,0,0,1,1.14,2.9,4.25,4.25,0,0,1-1.17,3.14,4.94,4.94,0,0,1-3.57,1.17,16.58,16.58,0,0,1-1.89-.1Zm1,7.15a7.63,7.63,0,0,0,1.05.06,3.11,3.11,0,0,0,3.45-3.43c0-1.91-1.07-3.12-3.28-3.12a5.82,5.82,0,0,0-1.22.11Z" transform="translate(-96.36 -112.14)"/><path class="cls-8" d="M500.32,256.9V265h-1V256.9Z" transform="translate(-96.36 -112.14)"/><path class="cls-8" d="M503.45,262.44l-.84,2.54h-1.08l2.75-8.08h1.26L508.3,265h-1.12l-.86-2.54Zm2.65-.82-.79-2.32c-.18-.53-.3-1-.42-1.48h0c-.12.48-.25,1-.41,1.47l-.79,2.33Z" transform="translate(-96.36 -112.14)"/><path class="cls-8" d="M510.1,257.79h-2.46v-.89h6v.89h-2.47V265H510.1Z" transform="translate(-96.36 -112.14)"/><path class="cls-8" d="M515.57,256.9V265h-1V256.9Z" transform="translate(-96.36 -112.14)"/><path class="cls-8" d="M517.4,265V256.9h1.14l2.59,4.09a22.28,22.28,0,0,1,1.45,2.63l0,0c-.09-1.08-.12-2.06-.12-3.32V256.9h1V265h-1.06l-2.57-4.1a26.34,26.34,0,0,1-1.51-2.7l0,0c.06,1,.08,2,.08,3.33V265Z" transform="translate(-96.36 -112.14)"/><path class="cls-8" d="M531.45,264.62a7.52,7.52,0,0,1-2.49.45,4.14,4.14,0,0,1-3-1.07,4.18,4.18,0,0,1-1.13-3,4.06,4.06,0,0,1,4.38-4.17,5,5,0,0,1,2,.37L531,258a4.19,4.19,0,0,0-1.78-.35,3,3,0,0,0-3.25,3.25A3,3,0,0,0,529,264.2a3.43,3.43,0,0,0,1.39-.21v-2.41h-1.65v-.84h2.67Z" transform="translate(-96.36 -112.14)"/><path class="cls-8" d="M468.63,275.26c0,2.78-1.69,4.26-3.75,4.26s-3.64-1.66-3.64-4.11,1.6-4.24,3.76-4.24S468.63,272.86,468.63,275.26Zm-6.27.13c0,1.73.93,3.27,2.58,3.27s2.59-1.52,2.59-3.35c0-1.61-.84-3.29-2.58-3.29S462.36,273.61,462.36,275.39Z" transform="translate(-96.36 -112.14)"/><path class="cls-8" d="M470,271.41a10.74,10.74,0,0,1,2-.17,3.28,3.28,0,0,1,2.34.66,2,2,0,0,1,.64,1.53,2.13,2.13,0,0,1-1.52,2.07v0a2,2,0,0,1,1.18,1.63,13,13,0,0,0,.63,2.22h-1.08a9.72,9.72,0,0,1-.54-1.93c-.24-1.11-.67-1.53-1.62-1.57h-1v3.5H470Zm1.05,3.68h1.06c1.12,0,1.83-.61,1.83-1.54s-.76-1.49-1.86-1.51a4,4,0,0,0-1,.1Z" transform="translate(-96.36 -112.14)"/><path class="cls-8" d="M482.64,279a7.52,7.52,0,0,1-2.49.45,4.14,4.14,0,0,1-3-1.07,4.18,4.18,0,0,1-1.13-3,4.06,4.06,0,0,1,4.38-4.17,5,5,0,0,1,2,.37l-.26.85a4.19,4.19,0,0,0-1.78-.35,3,3,0,0,0-3.25,3.25,3,3,0,0,0,3.11,3.26,3.46,3.46,0,0,0,1.4-.21V276H480v-.84h2.67Z" transform="translate(-96.36 -112.14)"/><path class="cls-8" d="M485.54,276.84l-.84,2.54h-1.08l2.75-8.08h1.26l2.76,8.08h-1.12l-.86-2.54Zm2.65-.81-.79-2.33c-.18-.53-.3-1-.42-1.48h0c-.12.48-.25,1-.41,1.47l-.79,2.34Z" transform="translate(-96.36 -112.14)"/><path class="cls-8" d="M491.58,279.38V271.3h1.14l2.59,4.09a22.28,22.28,0,0,1,1.45,2.63l0,0c-.1-1.08-.12-2.06-.12-3.32V271.3h1v8.08h-1.06l-2.56-4.1a23,23,0,0,1-1.51-2.7l0,0c.06,1,.08,2,.08,3.33v3.45Z" transform="translate(-96.36 -112.14)"/><path class="cls-8" d="M500.52,271.3v8.08h-1V271.3Z" transform="translate(-96.36 -112.14)"/><path class="cls-8" d="M501.79,278.77l4.49-6.56v0h-4.1v-.88h5.45v.64l-4.46,6.53v0h4.52v.87h-5.9Z" transform="translate(-96.36 -112.14)"/><path class="cls-8" d="M510.29,276.84l-.84,2.54h-1.08l2.74-8.08h1.26l2.76,8.08H514l-.87-2.54Zm2.65-.81-.79-2.33c-.18-.53-.3-1-.42-1.48h0c-.12.48-.25,1-.41,1.47L510.5,276Z" transform="translate(-96.36 -112.14)"/><path class="cls-8" d="M516.94,272.19h-2.46v-.89h6v.89H518v7.19h-1Z" transform="translate(-96.36 -112.14)"/><path class="cls-8" d="M522.41,271.3v8.08h-1V271.3Z" transform="translate(-96.36 -112.14)"/><path class="cls-8" d="M531.14,275.26c0,2.78-1.69,4.26-3.75,4.26s-3.64-1.66-3.64-4.11,1.6-4.24,3.76-4.24S531.14,272.86,531.14,275.26Zm-6.27.13c0,1.73.93,3.27,2.58,3.27s2.59-1.52,2.59-3.35c0-1.61-.84-3.29-2.58-3.29S524.87,273.61,524.87,275.39Z" transform="translate(-96.36 -112.14)"/><path class="cls-8" d="M532.5,279.38V271.3h1.14l2.59,4.09a22.28,22.28,0,0,1,1.45,2.63l0,0c-.1-1.08-.13-2.06-.13-3.32V271.3h1v8.08h-1.06l-2.56-4.1a23,23,0,0,1-1.51-2.7l0,0c.06,1,.08,2,.08,3.33v3.45Z" transform="translate(-96.36 -112.14)"/><path class="cls-8" d="M315.79,246.46c0,2.78-1.69,4.26-3.75,4.26s-3.64-1.66-3.64-4.11,1.6-4.24,3.75-4.24S315.79,244.06,315.79,246.46Zm-6.27.13c0,1.73.93,3.27,2.57,3.27s2.6-1.52,2.6-3.35c0-1.61-.84-3.29-2.58-3.29S309.52,244.81,309.52,246.59Z" transform="translate(-96.36 -112.14)"/><path class="cls-8" d="M317.15,242.61a10.66,10.66,0,0,1,2-.17,3.28,3.28,0,0,1,2.34.66,2,2,0,0,1,.64,1.53,2.14,2.14,0,0,1-1.53,2.07v0a2,2,0,0,1,1.19,1.63,13.27,13.27,0,0,0,.62,2.22h-1.08a10.51,10.51,0,0,1-.54-1.93c-.24-1.11-.67-1.53-1.61-1.57h-1v3.5h-1Zm1,3.68h1.07c1.12,0,1.82-.61,1.82-1.54s-.75-1.49-1.86-1.51a4.15,4.15,0,0,0-1,.1Z" transform="translate(-96.36 -112.14)"/><path class="cls-8" d="M324.65,242.5v3.38h3.91V242.5h1.05v8.08h-1.05v-3.79h-3.91v3.79h-1V242.5Z" transform="translate(-96.36 -112.14)"/><path class="cls-8" d="M332.74,248l-.84,2.54h-1.08l2.74-8.08h1.26l2.76,8.08h-1.11L335.6,248Zm2.65-.81-.8-2.33c-.17-.53-.3-1-.41-1.48h0c-.12.48-.25,1-.41,1.47l-.79,2.34Z" transform="translate(-96.36 -112.14)"/><path class="cls-8" d="M338.77,250.58V242.5h1.14l2.59,4.09a22.28,22.28,0,0,1,1.45,2.63l0,0c-.1-1.08-.12-2.06-.12-3.32V242.5h1v8.08h-1l-2.57-4.1a26.34,26.34,0,0,1-1.51-2.7l0,0c.06,1,.09,2,.09,3.33v3.45Z" transform="translate(-96.36 -112.14)"/><path class="cls-8" d="M348,248l-.84,2.54h-1.08l2.74-8.08h1.26l2.76,8.08h-1.11l-.87-2.54Zm2.65-.81-.8-2.33c-.17-.53-.29-1-.41-1.48h0c-.12.48-.25,1-.41,1.47l-.79,2.34Z" transform="translate(-96.36 -112.14)"/><path class="cls-8" d="M360,250.22a7.52,7.52,0,0,1-2.49.45,4.14,4.14,0,0,1-3-1.07,4.18,4.18,0,0,1-1.13-3,4.06,4.06,0,0,1,4.38-4.17,5,5,0,0,1,2,.37l-.26.85a4.19,4.19,0,0,0-1.78-.35,3,3,0,0,0-3.25,3.25,3,3,0,0,0,3.11,3.26,3.46,3.46,0,0,0,1.4-.21v-2.41h-1.65v-.84H360Z" transform="translate(-96.36 -112.14)"/><path class="cls-8" d="M365.77,246.79h-3.14v2.92h3.5v.87h-4.55V242.5H366v.88h-3.32v2.55h3.14Z" transform="translate(-96.36 -112.14)"/><path class="cls-8" d="M307.5,261.43c-.06-1.12-.13-2.48-.12-3.49h0c-.27.95-.61,2-1,3.07l-1.43,3.93h-.79l-1.3-3.85c-.39-1.14-.71-2.19-.94-3.15h0c0,1-.09,2.37-.16,3.58l-.22,3.46h-1l.56-8.08h1.33l1.38,3.91c.34,1,.61,1.88.82,2.72h0c.21-.81.5-1.7.86-2.72l1.44-3.91h1.33l.5,8.08h-1Z" transform="translate(-96.36 -112.14)"/><path class="cls-8" d="M311.52,262.44l-.84,2.54H309.6l2.75-8.08h1.26l2.76,8.08h-1.12l-.86-2.54Zm2.65-.82-.79-2.32c-.18-.53-.3-1-.42-1.48h0c-.12.48-.26,1-.41,1.47l-.79,2.33Z" transform="translate(-96.36 -112.14)"/><path class="cls-8" d="M317.56,265V256.9h1.14l2.59,4.09a23.83,23.83,0,0,1,1.45,2.63l0,0c-.09-1.08-.12-2.06-.12-3.32V256.9h1V265h-1.06l-2.57-4.1a26.34,26.34,0,0,1-1.51-2.7l0,0c.06,1,.08,2,.08,3.33V265Z" transform="translate(-96.36 -112.14)"/><path class="cls-8" d="M326.76,262.44l-.84,2.54h-1.08l2.75-8.08h1.26l2.76,8.08h-1.12l-.86-2.54Zm2.65-.82-.79-2.32c-.18-.53-.3-1-.42-1.48h0c-.12.48-.26,1-.41,1.47l-.79,2.33Z" transform="translate(-96.36 -112.14)"/><path class="cls-8" d="M338.77,264.62a7.45,7.45,0,0,1-2.48.45,3.8,3.8,0,0,1-4.15-4.08,4,4,0,0,1,4.38-4.17,5,5,0,0,1,2,.37l-.25.85a4.21,4.21,0,0,0-1.79-.35,3,3,0,0,0-3.25,3.25,3,3,0,0,0,3.12,3.26,3.43,3.43,0,0,0,1.39-.21v-2.41h-1.64v-.84h2.66Z" transform="translate(-96.36 -112.14)"/><path class="cls-8" d="M344.56,261.19h-3.15v2.92h3.51V265h-4.55V256.9h4.37v.88h-3.33v2.55h3.15Z" transform="translate(-96.36 -112.14)"/><path class="cls-8" d="M353.09,261.43c-.06-1.12-.14-2.48-.12-3.49h0c-.28.95-.61,2-1,3.07l-1.43,3.93h-.79l-1.31-3.85c-.38-1.14-.7-2.19-.93-3.15h0c0,1-.08,2.37-.15,3.58l-.22,3.46h-1l.56-8.08H348l1.38,3.91c.34,1,.61,1.88.82,2.72h0c.21-.81.49-1.7.85-2.72l1.44-3.91h1.34l.5,8.08h-1Z" transform="translate(-96.36 -112.14)"/><path class="cls-8" d="M360.11,261.19H357v2.92h3.51V265h-4.55V256.9h4.37v.88H357v2.55h3.15Z" transform="translate(-96.36 -112.14)"/><path class="cls-8" d="M361.83,265V256.9H363l2.6,4.09a25.61,25.61,0,0,1,1.45,2.63l0,0c-.1-1.08-.12-2.06-.12-3.32V256.9h1V265h-1.05l-2.57-4.1a26.34,26.34,0,0,1-1.51-2.7l0,0c.06,1,.09,2,.09,3.33V265Z" transform="translate(-96.36 -112.14)"/><path class="cls-8" d="M371.26,257.79H368.8v-.89h6v.89h-2.47V265h-1.05Z" transform="translate(-96.36 -112.14)"/><path class="cls-8" d="M508.24,113.16h-2.46v-.89h6v.89H509.3v7.2h-1.06Z" transform="translate(-96.36 -112.14)"/><path class="cls-8" d="M513.71,112.27v3.39h3.91v-3.39h1.06v8.09h-1.06v-3.79h-3.91v3.79h-1v-8.09Z" transform="translate(-96.36 -112.14)"/><path class="cls-8" d="M524.68,116.57h-3.14v2.91H525v.88H520.5v-8.09h4.36v.88h-3.32v2.55h3.14Z" transform="translate(-96.36 -112.14)"/><path class="cls-8" d="M528.94,120.36v-8.09h1.14l2.59,4.09a22.28,22.28,0,0,1,1.45,2.63h0c-.1-1.08-.12-2.06-.12-3.32v-3.39h1v8.09h-1l-2.57-4.1a27.44,27.44,0,0,1-1.51-2.7h0c.06,1,.09,2,.09,3.33v3.46Z" transform="translate(-96.36 -112.14)"/><path class="cls-8" d="M538.15,117.81l-.84,2.55h-1.08l2.74-8.09h1.26l2.76,8.09h-1.11l-.87-2.55Zm2.65-.81-.8-2.33c-.17-.52-.29-1-.41-1.47h0c-.12.48-.25,1-.41,1.46l-.79,2.34Z" transform="translate(-96.36 -112.14)"/><path class="cls-8" d="M544.79,113.16h-2.46v-.89h6v.89h-2.47v7.2h-1.06Z" transform="translate(-96.36 -112.14)"/><path class="cls-8" d="M550.27,112.27v8.09h-1v-8.09Z" transform="translate(-96.36 -112.14)"/><path class="cls-8" d="M559,116.23c0,2.78-1.69,4.26-3.75,4.26s-3.64-1.66-3.64-4.1,1.6-4.25,3.76-4.25S559,113.83,559,116.23Zm-6.27.13c0,1.73.93,3.28,2.58,3.28s2.59-1.53,2.59-3.36c0-1.61-.84-3.29-2.58-3.29S552.73,114.59,552.73,116.36Z" transform="translate(-96.36 -112.14)"/><path class="cls-8" d="M560.36,120.36v-8.09h1.14l2.59,4.09a22.28,22.28,0,0,1,1.45,2.63h0c-.09-1.08-.12-2.06-.12-3.32v-3.39h1v8.09h-1.06l-2.56-4.1a25.67,25.67,0,0,1-1.52-2.7h0c.06,1,.08,2,.08,3.33v3.46Z" transform="translate(-96.36 -112.14)"/><path class="cls-8" d="M569.56,117.81l-.84,2.55h-1.08l2.75-8.09h1.26l2.76,8.09h-1.12l-.86-2.55Zm2.65-.81-.79-2.33c-.18-.52-.3-1-.42-1.47h0c-.12.48-.25,1-.41,1.46l-.79,2.34Z" transform="translate(-96.36 -112.14)"/><path class="cls-8" d="M575.6,112.27h1v7.21h3.46v.88h-4.5Z" transform="translate(-96.36 -112.14)"/><path class="cls-8" d="M583.81,112.38a10.49,10.49,0,0,1,1.9-.17,3.31,3.31,0,0,1,2.22.59,1.69,1.69,0,0,1,.67,1.43,1.91,1.91,0,0,1-1.36,1.77v0a2.08,2.08,0,0,1,1.66,2,2.15,2.15,0,0,1-.68,1.62,4,4,0,0,1-2.79.76,11.63,11.63,0,0,1-1.62-.1Zm1,3.31h.95c1.1,0,1.75-.57,1.75-1.35,0-1-.72-1.32-1.78-1.32a4.21,4.21,0,0,0-.92.07Zm0,3.88a6.63,6.63,0,0,0,.88,0c1.07,0,2.07-.39,2.07-1.57s-.95-1.56-2.09-1.56h-.86Z" transform="translate(-96.36 -112.14)"/><path class="cls-8" d="M597.22,116.23c0,2.78-1.69,4.26-3.76,4.26s-3.63-1.66-3.63-4.1,1.6-4.25,3.75-4.25S597.22,113.83,597.22,116.23Zm-6.27.13c0,1.73.93,3.28,2.58,3.28s2.59-1.53,2.59-3.36c0-1.61-.84-3.29-2.58-3.29S591,114.59,591,116.36Z" transform="translate(-96.36 -112.14)"/><path class="cls-8" d="M599.72,117.81l-.84,2.55H597.8l2.75-8.09h1.25l2.76,8.09h-1.11l-.87-2.55Zm2.65-.81-.79-2.33c-.18-.52-.3-1-.42-1.47h0c-.12.48-.25,1-.4,1.46l-.8,2.34Z" transform="translate(-96.36 -112.14)"/><path class="cls-8" d="M605.75,112.38a10.77,10.77,0,0,1,2-.17,3.36,3.36,0,0,1,2.34.66,2.05,2.05,0,0,1,.63,1.54,2.12,2.12,0,0,1-1.52,2.06v0a2,2,0,0,1,1.19,1.63,12.33,12.33,0,0,0,.62,2.22h-1.08a11.07,11.07,0,0,1-.54-1.93c-.24-1.12-.67-1.54-1.62-1.57h-1v3.5h-1Zm1,3.68h1.07c1.11,0,1.82-.61,1.82-1.53s-.76-1.5-1.86-1.51a4.92,4.92,0,0,0-1,.09Z" transform="translate(-96.36 -112.14)"/><path class="cls-8" d="M612.21,112.38a15.81,15.81,0,0,1,2.22-.17,4.6,4.6,0,0,1,3.27,1,3.73,3.73,0,0,1,1.14,2.9,4.28,4.28,0,0,1-1.16,3.15,5,5,0,0,1-3.57,1.16,16.77,16.77,0,0,1-1.9-.1Zm1,7.15a6.45,6.45,0,0,0,1.06.06,3.11,3.11,0,0,0,3.44-3.43c0-1.91-1.07-3.12-3.27-3.12a6,6,0,0,0-1.23.11Z" transform="translate(-96.36 -112.14)"/><path class="cls-8" d="M543.79,130.63c0,2.78-1.69,4.26-3.75,4.26s-3.63-1.66-3.63-4.1,1.59-4.25,3.75-4.25S543.79,128.23,543.79,130.63Zm-6.27.13c0,1.73.94,3.28,2.58,3.28s2.59-1.53,2.59-3.36c0-1.61-.84-3.29-2.58-3.29S537.52,129,537.52,130.76Z" transform="translate(-96.36 -112.14)"/><path class="cls-8" d="M545.16,126.67h4.35v.88H546.2v2.69h3.06v.86H546.2v3.66h-1Z" transform="translate(-96.36 -112.14)"/><path class="cls-8" d="M554.85,132.21l-.84,2.55h-1.08l2.75-8.09h1.26l2.76,8.09h-1.12l-.86-2.55Zm2.65-.81-.79-2.33c-.18-.53-.3-1-.42-1.47h0c-.12.48-.26,1-.41,1.46l-.79,2.34Z" transform="translate(-96.36 -112.14)"/><path class="cls-8" d="M560.89,126.77a12.38,12.38,0,0,1,2-.16,3.29,3.29,0,0,1,2.27.68,2.17,2.17,0,0,1,.7,1.69,2.35,2.35,0,0,1-.62,1.72,3.34,3.34,0,0,1-2.47.89,3.61,3.61,0,0,1-.84-.07v3.24h-1Zm1,3.9a3.54,3.54,0,0,0,.86.08c1.26,0,2-.61,2-1.73s-.75-1.58-1.91-1.58a4.17,4.17,0,0,0-1,.09Z" transform="translate(-96.36 -112.14)"/><path class="cls-8" d="M567.27,126.77a12.38,12.38,0,0,1,2-.16,3.29,3.29,0,0,1,2.27.68,2.18,2.18,0,0,1,.71,1.69,2.36,2.36,0,0,1-.63,1.72,3.34,3.34,0,0,1-2.47.89,3.61,3.61,0,0,1-.84-.07v3.24h-1Zm1,3.9a3.58,3.58,0,0,0,.87.08c1.26,0,2-.61,2-1.73s-.75-1.58-1.9-1.58a4.21,4.21,0,0,0-1,.09Z" transform="translate(-96.36 -112.14)"/><path class="cls-8" d="M577.84,131H574.7v2.91h3.5v.88h-4.55v-8.09H578v.88H574.7v2.55h3.14Z" transform="translate(-96.36 -112.14)"/><path class="cls-8" d="M580.87,132.21l-.84,2.55H579l2.74-8.09H583l2.76,8.09H584.6l-.87-2.55Zm2.65-.81-.8-2.33c-.18-.53-.3-1-.42-1.47h0c-.12.48-.25,1-.41,1.46l-.79,2.34Z" transform="translate(-96.36 -112.14)"/><path class="cls-8" d="M586.9,126.67H588v7.21h3.45v.88h-4.5Z" transform="translate(-96.36 -112.14)"/><path class="cls-8" d="M525.46,140.35a8.67,8.67,0,0,0,0,9.78h-.83a7.8,7.8,0,0,1-1.57-4.87,8.06,8.06,0,0,1,1.57-4.91Z" transform="translate(-96.36 -112.14)"/><path class="cls-8" d="M526.62,141.07H531V142h-3.31v2.69h3.06v.86h-3.06v3.66h-1Z" transform="translate(-96.36 -112.14)"/><path class="cls-8" d="M532.83,146.61l-.84,2.55h-1.08l2.75-8.09h1.26l2.76,8.09h-1.12l-.86-2.55Zm2.65-.81-.79-2.33c-.18-.53-.3-1-.42-1.47h0c-.12.48-.26,1-.41,1.46l-.79,2.34Z" transform="translate(-96.36 -112.14)"/><path class="cls-8" d="M545.63,145.61c-.06-1.13-.13-2.49-.12-3.49h0c-.28.94-.62,1.95-1,3.07L543,149.11h-.79l-1.31-3.85c-.38-1.14-.71-2.18-.94-3.14h0c0,1-.08,2.36-.16,3.57l-.21,3.47h-1l.57-8.09h1.33l1.38,3.91c.33,1,.61,1.89.81,2.73h0c.2-.82.49-1.71.85-2.73l1.44-3.91h1.33l.5,8.09h-1Z" transform="translate(-96.36 -112.14)"/><path class="cls-8" d="M549.51,141.07v8.09h-1v-8.09Z" transform="translate(-96.36 -112.14)"/><path class="cls-8" d="M551.33,141.07h1v7.21h3.45v.88h-4.5Z" transform="translate(-96.36 -112.14)"/><path class="cls-8" d="M557.79,149.16v-3.43l-2.55-4.66h1.18l1.14,2.23c.31.62.55,1.11.81,1.67h0c.23-.53.5-1.05.82-1.67l1.16-2.23h1.19l-2.71,4.65v3.44Z" transform="translate(-96.36 -112.14)"/><path class="cls-8" d="M570.68,148.89a5.09,5.09,0,0,1-2.14.39,3.77,3.77,0,0,1-4-4.09,4,4,0,0,1,4.22-4.25,4.4,4.4,0,0,1,1.92.36l-.25.85a3.87,3.87,0,0,0-1.64-.33,3,3,0,0,0-3.15,3.33,2.94,2.94,0,0,0,3.11,3.25,4.25,4.25,0,0,0,1.7-.33Z" transform="translate(-96.36 -112.14)"/><path class="cls-8" d="M578.64,145c0,2.78-1.69,4.26-3.75,4.26s-3.64-1.66-3.64-4.1,1.6-4.25,3.76-4.25S578.64,142.63,578.64,145Zm-6.27.13c0,1.73.94,3.28,2.58,3.28s2.59-1.53,2.59-3.36c0-1.61-.84-3.29-2.58-3.29S572.37,143.39,572.37,145.16Z" transform="translate(-96.36 -112.14)"/><path class="cls-8" d="M581.05,141.07v4.79c0,1.81.8,2.58,1.88,2.58s2-.79,2-2.58v-4.79H586v4.72c0,2.48-1.31,3.5-3.06,3.5s-2.9-.95-2.9-3.46v-4.76Z" transform="translate(-96.36 -112.14)"/><path class="cls-8" d="M587.77,141.18a10.58,10.58,0,0,1,2-.17,3.36,3.36,0,0,1,2.34.66,2,2,0,0,1,.63,1.54,2.12,2.12,0,0,1-1.52,2.06v0a2,2,0,0,1,1.19,1.63,12.33,12.33,0,0,0,.62,2.22H592a11.07,11.07,0,0,1-.54-1.93c-.24-1.12-.67-1.54-1.62-1.57h-1v3.5h-1Zm1,3.68h1.07c1.11,0,1.82-.61,1.82-1.53s-.76-1.5-1.86-1.51a4.92,4.92,0,0,0-1,.09Z" transform="translate(-96.36 -112.14)"/><path class="cls-8" d="M595.87,142h-2.46v-.89h6V142h-2.47v7.2h-1Z" transform="translate(-96.36 -112.14)"/><path class="cls-8" d="M599.62,150.13a8.1,8.1,0,0,0,1.51-4.89,8,8,0,0,0-1.51-4.89h.82a8.4,8.4,0,0,1,0,9.78Z" transform="translate(-96.36 -112.14)"/><path class="cls-8" d="M214.63,113.16h-2.46v-.89h6v.89h-2.48v7.2h-1.05Z" transform="translate(-96.36 -112.14)"/><path class="cls-8" d="M220.1,112.27v3.39H224v-3.39h1.06v8.09H224v-3.79H220.1v3.79h-1v-8.09Z" transform="translate(-96.36 -112.14)"/><path class="cls-8" d="M231.07,116.57h-3.14v2.91h3.5v.88h-4.55v-8.09h4.37v.88h-3.32v2.55h3.14Z" transform="translate(-96.36 -112.14)"/><path class="cls-8" d="M235.33,120.36v-8.09h1.14l2.59,4.09a22.28,22.28,0,0,1,1.45,2.63h0c-.09-1.08-.12-2.06-.12-3.32v-3.39h1v8.09h-1.06l-2.56-4.1a23.86,23.86,0,0,1-1.51-2.7h0c.06,1,.08,2,.08,3.33v3.46Z" transform="translate(-96.36 -112.14)"/><path class="cls-8" d="M244.53,117.81l-.84,2.55h-1.08l2.75-8.09h1.26l2.76,8.09h-1.12l-.86-2.55Zm2.65-.81-.79-2.33c-.18-.52-.3-1-.42-1.47h0c-.12.48-.25,1-.41,1.46l-.79,2.34Z" transform="translate(-96.36 -112.14)"/><path class="cls-8" d="M251.18,113.16h-2.46v-.89h6v.89h-2.47v7.2h-1.06Z" transform="translate(-96.36 -112.14)"/><path class="cls-8" d="M256.65,112.27v8.09h-1v-8.09Z" transform="translate(-96.36 -112.14)"/><path class="cls-8" d="M265.39,116.23c0,2.78-1.7,4.26-3.76,4.26s-3.63-1.66-3.63-4.1,1.59-4.25,3.75-4.25S265.39,113.83,265.39,116.23Zm-6.28.13c0,1.73.94,3.28,2.58,3.28s2.59-1.53,2.59-3.36c0-1.61-.84-3.29-2.58-3.29S259.11,114.59,259.11,116.36Z" transform="translate(-96.36 -112.14)"/><path class="cls-8" d="M266.75,120.36v-8.09h1.14l2.59,4.09a23.83,23.83,0,0,1,1.45,2.63h0c-.1-1.08-.12-2.06-.12-3.32v-3.39h1v8.09h-1.05l-2.57-4.1a27.44,27.44,0,0,1-1.51-2.7h0c.06,1,.08,2,.08,3.33v3.46Z" transform="translate(-96.36 -112.14)"/><path class="cls-8" d="M276,117.81l-.84,2.55H274l2.75-8.09H278l2.75,8.09h-1.11l-.86-2.55Zm2.65-.81-.79-2.33c-.18-.52-.3-1-.42-1.47h0c-.12.48-.25,1-.4,1.46l-.79,2.34Z" transform="translate(-96.36 -112.14)"/><path class="cls-8" d="M282,112.27h1v7.21h3.45v.88H282Z" transform="translate(-96.36 -112.14)"/><path class="cls-8" d="M290.19,112.38a10.7,10.7,0,0,1,1.91-.17,3.33,3.33,0,0,1,2.22.59,1.69,1.69,0,0,1,.67,1.43,1.9,1.9,0,0,1-1.37,1.77v0a2.08,2.08,0,0,1,1.67,2,2.15,2.15,0,0,1-.68,1.62,4.06,4.06,0,0,1-2.8.76,11.75,11.75,0,0,1-1.62-.1Zm1.05,3.31h.94c1.11,0,1.76-.57,1.76-1.35,0-1-.72-1.32-1.78-1.32a4.21,4.21,0,0,0-.92.07Zm0,3.88a6.56,6.56,0,0,0,.87,0c1.08,0,2.08-.39,2.08-1.57s-.95-1.56-2.09-1.56h-.86Z" transform="translate(-96.36 -112.14)"/><path class="cls-8" d="M303.61,116.23c0,2.78-1.7,4.26-3.76,4.26s-3.63-1.66-3.63-4.1,1.59-4.25,3.75-4.25S303.61,113.83,303.61,116.23Zm-6.28.13c0,1.73.94,3.28,2.58,3.28s2.59-1.53,2.59-3.36c0-1.61-.84-3.29-2.58-3.29S297.33,114.59,297.33,116.36Z" transform="translate(-96.36 -112.14)"/><path class="cls-8" d="M306.1,117.81l-.83,2.55h-1.08l2.74-8.09h1.26l2.76,8.09h-1.12l-.86-2.55Zm2.66-.81-.8-2.33c-.18-.52-.3-1-.42-1.47h0c-.12.48-.25,1-.41,1.46l-.79,2.34Z" transform="translate(-96.36 -112.14)"/><path class="cls-8" d="M312.14,112.38a10.77,10.77,0,0,1,2-.17,3.31,3.31,0,0,1,2.33.66,2,2,0,0,1,.64,1.54,2.12,2.12,0,0,1-1.52,2.06v0a2,2,0,0,1,1.18,1.63,13,13,0,0,0,.63,2.22h-1.08a11.07,11.07,0,0,1-.54-1.93c-.24-1.12-.67-1.54-1.62-1.57h-1v3.5h-1.05Zm1.05,3.68h1.06c1.12,0,1.83-.61,1.83-1.53s-.76-1.5-1.86-1.51a4.76,4.76,0,0,0-1,.09Z" transform="translate(-96.36 -112.14)"/><path class="cls-8" d="M318.6,112.38a15.69,15.69,0,0,1,2.22-.17,4.62,4.62,0,0,1,3.27,1,3.73,3.73,0,0,1,1.14,2.9,4.32,4.32,0,0,1-1.16,3.15,5,5,0,0,1-3.58,1.16,16.72,16.72,0,0,1-1.89-.1Zm1,7.15a6.45,6.45,0,0,0,1.06.06,3.11,3.11,0,0,0,3.44-3.43c0-1.91-1.07-3.12-3.28-3.12a6,6,0,0,0-1.22.11Z" transform="translate(-96.36 -112.14)"/><path class="cls-8" d="M250.18,130.63c0,2.78-1.69,4.26-3.75,4.26s-3.64-1.66-3.64-4.1,1.6-4.25,3.76-4.25S250.18,128.23,250.18,130.63Zm-6.27.13c0,1.73.93,3.28,2.58,3.28s2.59-1.53,2.59-3.36c0-1.61-.84-3.29-2.58-3.29S243.91,129,243.91,130.76Z" transform="translate(-96.36 -112.14)"/><path class="cls-8" d="M251.54,126.67h4.36v.88h-3.32v2.69h3.06v.86h-3.06v3.66h-1Z" transform="translate(-96.36 -112.14)"/><path class="cls-8" d="M261.24,132.21l-.84,2.55h-1.08l2.74-8.09h1.26l2.76,8.09H265l-.87-2.55Zm2.65-.81-.79-2.33c-.18-.53-.3-1-.42-1.47h0c-.12.48-.25,1-.41,1.46l-.79,2.34Z" transform="translate(-96.36 -112.14)"/><path class="cls-8" d="M267.27,126.77a12.63,12.63,0,0,1,2-.16,3.26,3.26,0,0,1,2.26.68,2.15,2.15,0,0,1,.71,1.69,2.4,2.4,0,0,1-.62,1.72,3.35,3.35,0,0,1-2.47.89,3.56,3.56,0,0,1-.84-.07v3.24h-1.05Zm1.05,3.9a3.44,3.44,0,0,0,.86.08c1.26,0,2-.61,2-1.73s-.76-1.58-1.91-1.58a4.11,4.11,0,0,0-1,.09Z" transform="translate(-96.36 -112.14)"/><path class="cls-8" d="M273.66,126.77a12.38,12.38,0,0,1,2-.16,3.29,3.29,0,0,1,2.27.68,2.17,2.17,0,0,1,.7,1.69,2.35,2.35,0,0,1-.62,1.72,3.34,3.34,0,0,1-2.47.89,3.61,3.61,0,0,1-.84-.07v3.24h-1Zm1,3.9a3.54,3.54,0,0,0,.86.08c1.26,0,2-.61,2-1.73s-.76-1.58-1.91-1.58a4.17,4.17,0,0,0-1,.09Z" transform="translate(-96.36 -112.14)"/><path class="cls-8" d="M284.23,131h-3.15v2.91h3.51v.88H280v-8.09h4.37v.88h-3.33v2.55h3.15Z" transform="translate(-96.36 -112.14)"/><path class="cls-8" d="M287.25,132.21l-.84,2.55h-1.08l2.75-8.09h1.26l2.76,8.09H291l-.86-2.55Zm2.65-.81-.79-2.33c-.18-.53-.3-1-.42-1.47h0c-.12.48-.25,1-.41,1.46l-.79,2.34Z" transform="translate(-96.36 -112.14)"/><path class="cls-8" d="M293.29,126.67h1v7.21h3.46v.88h-4.5Z" transform="translate(-96.36 -112.14)"/><path class="cls-8" d="M231.85,140.35a7.94,7.94,0,0,0-1.51,4.92,8.05,8.05,0,0,0,1.51,4.86H231a7.8,7.8,0,0,1-1.57-4.87,8,8,0,0,1,1.57-4.91Z" transform="translate(-96.36 -112.14)"/><path class="cls-8" d="M233,141.07h4.35V142H234v2.69h3.06v.86H234v3.66h-1Z" transform="translate(-96.36 -112.14)"/><path class="cls-8" d="M239.22,146.61l-.84,2.55H237.3l2.74-8.09h1.26l2.76,8.09H243l-.87-2.55Zm2.65-.81-.79-2.33c-.18-.53-.3-1-.42-1.47h0c-.12.48-.25,1-.41,1.46l-.79,2.34Z" transform="translate(-96.36 -112.14)"/><path class="cls-8" d="M252,145.61c-.06-1.13-.13-2.49-.12-3.49h0c-.27.94-.61,1.95-1,3.07l-1.43,3.92h-.79l-1.3-3.85c-.39-1.14-.71-2.18-.94-3.14h0c0,1-.09,2.36-.16,3.57l-.22,3.47h-1l.56-8.09h1.33l1.38,3.91c.34,1,.62,1.89.82,2.73h0c.21-.82.5-1.71.86-2.73l1.44-3.91h1.33l.5,8.09h-1Z" transform="translate(-96.36 -112.14)"/><path class="cls-8" d="M255.9,141.07v8.09h-1.05v-8.09Z" transform="translate(-96.36 -112.14)"/><path class="cls-8" d="M257.72,141.07h1v7.21h3.46v.88h-4.5Z" transform="translate(-96.36 -112.14)"/><path class="cls-8" d="M264.18,149.16v-3.43l-2.56-4.66h1.19L264,143.3c.31.62.55,1.11.8,1.67h0c.22-.53.5-1.05.81-1.67l1.16-2.23h1.19l-2.71,4.65v3.44Z" transform="translate(-96.36 -112.14)"/><path class="cls-8" d="M277.06,148.89a5,5,0,0,1-2.13.39,3.78,3.78,0,0,1-4-4.09,4,4,0,0,1,4.22-4.25,4.37,4.37,0,0,1,1.92.36l-.25.85a3.82,3.82,0,0,0-1.63-.33,3,3,0,0,0-3.15,3.33,2.94,2.94,0,0,0,3.1,3.25,4.27,4.27,0,0,0,1.71-.33Z" transform="translate(-96.36 -112.14)"/><path class="cls-8" d="M285,145c0,2.78-1.69,4.26-3.76,4.26s-3.63-1.66-3.63-4.1,1.6-4.25,3.75-4.25S285,142.63,285,145Zm-6.27.13c0,1.73.93,3.28,2.57,3.28s2.6-1.53,2.6-3.36c0-1.61-.84-3.29-2.58-3.29S278.76,143.39,278.76,145.16Z" transform="translate(-96.36 -112.14)"/><path class="cls-8" d="M287.43,141.07v4.79c0,1.81.81,2.58,1.88,2.58s2-.79,2-2.58v-4.79h1.06v4.72c0,2.48-1.31,3.5-3.06,3.5s-2.9-.95-2.9-3.46v-4.76Z" transform="translate(-96.36 -112.14)"/><path class="cls-8" d="M294.15,141.18a10.77,10.77,0,0,1,2-.17,3.31,3.31,0,0,1,2.33.66,2,2,0,0,1,.64,1.54,2.12,2.12,0,0,1-1.52,2.06v0a2,2,0,0,1,1.18,1.63,13,13,0,0,0,.63,2.22h-1.08a11.07,11.07,0,0,1-.54-1.93c-.24-1.12-.67-1.54-1.62-1.57h-1v3.5h-1.05Zm1.05,3.68h1.06c1.12,0,1.83-.61,1.83-1.53s-.76-1.5-1.86-1.51a4.76,4.76,0,0,0-1,.09Z" transform="translate(-96.36 -112.14)"/><path class="cls-8" d="M302.25,142h-2.46v-.89h6V142h-2.47v7.2h-1.06Z" transform="translate(-96.36 -112.14)"/><path class="cls-8" d="M306,150.13a8.67,8.67,0,0,0,0-9.78h.81a8.36,8.36,0,0,1,0,9.78Z" transform="translate(-96.36 -112.14)"/><path class="cls-8" d="M501.64,347.15h-2.46v-.89h6v.89h-2.47v7.2h-1.05Z" transform="translate(-96.36 -112.14)"/><path class="cls-8" d="M507.11,346.26v3.39H511v-3.39h1.06v8.09H511v-3.79h-3.91v3.79h-1v-8.09Z" transform="translate(-96.36 -112.14)"/><path class="cls-8" d="M518.08,350.56h-3.15v2.91h3.51v.88h-4.55v-8.09h4.37v.88h-3.33v2.55h3.15Z" transform="translate(-96.36 -112.14)"/><path class="cls-8" d="M523.65,351.8l-.84,2.55h-1.08l2.74-8.09h1.26l2.76,8.09h-1.11l-.87-2.55Zm2.65-.81-.8-2.33c-.17-.53-.29-1-.42-1.47h0c-.12.48-.25,1-.41,1.46l-.79,2.34Z" transform="translate(-96.36 -112.14)"/><path class="cls-8" d="M529.68,346.37a15.81,15.81,0,0,1,2.22-.17,4.65,4.65,0,0,1,3.28,1,3.73,3.73,0,0,1,1.14,2.9,4.29,4.29,0,0,1-1.17,3.15,5,5,0,0,1-3.57,1.16,16.77,16.77,0,0,1-1.9-.1Zm1.05,7.15a6.25,6.25,0,0,0,1,.06,3.11,3.11,0,0,0,3.44-3.43c0-1.91-1.06-3.12-3.27-3.12a5.82,5.82,0,0,0-1.22.11Z" transform="translate(-96.36 -112.14)"/><path class="cls-8" d="M544.58,350.22c0,2.78-1.69,4.26-3.75,4.26s-3.64-1.66-3.64-4.1,1.6-4.25,3.76-4.25S544.58,347.82,544.58,350.22Zm-6.27.13c0,1.73.94,3.28,2.58,3.28s2.59-1.53,2.59-3.36c0-1.61-.84-3.29-2.58-3.29S538.31,348.58,538.31,350.35Z" transform="translate(-96.36 -112.14)"/><path class="cls-8" d="M545.94,346.36a12.63,12.63,0,0,1,2-.16,3.26,3.26,0,0,1,2.26.68,2.15,2.15,0,0,1,.71,1.69,2.4,2.4,0,0,1-.62,1.72,3.37,3.37,0,0,1-2.47.89,3.56,3.56,0,0,1-.84-.07v3.24h-1Zm1,3.9a3.44,3.44,0,0,0,.86.08c1.26,0,2-.61,2-1.73S549.12,347,548,347a4.11,4.11,0,0,0-1,.09Z" transform="translate(-96.36 -112.14)"/><path class="cls-8" d="M553.86,347.15H551.4v-.89h6v.89h-2.47v7.2h-1.06Z" transform="translate(-96.36 -112.14)"/><path class="cls-8" d="M559.33,346.26v8.09h-1v-8.09Z" transform="translate(-96.36 -112.14)"/><path class="cls-8" d="M562.93,354.35l-2.64-8.09h1.13l1.26,4c.35,1.09.65,2.07.86,3h0c.23-.94.56-2,.92-3l1.37-4H567l-2.9,8.09Z" transform="translate(-96.36 -112.14)"/><path class="cls-8" d="M572,350.56H568.9v2.91h3.5v.88h-4.55v-8.09h4.37v.88H568.9v2.55H572Z" transform="translate(-96.36 -112.14)"/><path class="cls-8" d="M576.3,346.26h4.36v.88h-3.31v2.69h3v.86h-3v3.66H576.3Z" transform="translate(-96.36 -112.14)"/><path class="cls-8" d="M582.52,351.8l-.84,2.55H580.6l2.74-8.09h1.26l2.76,8.09h-1.11l-.87-2.55Zm2.65-.81-.79-2.33c-.18-.53-.3-1-.42-1.47h0c-.12.48-.25,1-.41,1.46l-.79,2.34Z" transform="translate(-96.36 -112.14)"/><path class="cls-8" d="M595.32,350.8c-.06-1.13-.13-2.49-.12-3.49h0c-.27.94-.61,1.95-1,3.07l-1.43,3.92h-.79l-1.3-3.85c-.39-1.14-.71-2.18-.94-3.14h0c0,1-.09,2.36-.16,3.57l-.21,3.47h-1l.56-8.09h1.33l1.38,3.91c.34,1,.62,1.89.82,2.73h0c.2-.82.49-1.71.85-2.73l1.44-3.91H596l.5,8.09h-1Z" transform="translate(-96.36 -112.14)"/><path class="cls-8" d="M599.2,346.26v8.09h-1.05v-8.09Z" transform="translate(-96.36 -112.14)"/><path class="cls-8" d="M601,346.26h1.05v7.21h3.45v.88H601Z" transform="translate(-96.36 -112.14)"/><path class="cls-8" d="M607.48,354.35v-3.43l-2.56-4.66h1.19l1.14,2.23c.31.62.55,1.11.8,1.67h0c.22-.53.5-1.05.81-1.67l1.16-2.23h1.19l-2.71,4.65v3.44Z" transform="translate(-96.36 -112.14)"/><path class="cls-3" d="M560.75,366.39c-9.21,4.17-81.51,34.89-141.49.09" transform="translate(-96.36 -112.14)"/><polygon class="cls-8" points="459.69 251.84 459.36 252.78 464.03 254.38 462.09 258.92 463.01 259.31 465.37 253.79 459.69 251.84"/><polygon class="cls-8" points="327.78 252.34 328.02 253.31 323.24 254.5 324.78 259.18 323.83 259.5 321.95 253.79 327.78 252.34"/><path class="cls-3" d="M418.32,333.71s78.29-37.78,142.48-.55" transform="translate(-96.36 -112.14)"/><polygon class="cls-8" points="459.54 223.02 459.3 222.05 464.08 220.86 462.55 216.17 463.5 215.86 465.37 221.57 459.54 223.02"/><path class="cls-3" d="M266.09,333.71s.79-.38,2.28-1" transform="translate(-96.36 -112.14)"/><path class="cls-9" d="M272.91,330.8c19.84-7.87,79.43-27.2,131.31,0" transform="translate(-96.36 -112.14)"/><path class="cls-3" d="M406.39,331.93c.73.4,1.46.81,2.18,1.23" transform="translate(-96.36 -112.14)"/><polygon class="cls-8" points="307.32 223.02 307.07 222.05 311.86 220.86 310.32 216.17 311.27 215.86 313.14 221.57 307.32 223.02"/></svg>